<?xml version="1.0" encoding="UTF-8"?>
<svg version="1.1" xmlns="http://www.w3.org/2000/svg" width="512" height="512" viewBox="0 0 512 512">
  <style>
    /* Luis Cordeiro  light theme*/
    path { fill: #133342;
           stroke: #ffffff;
           stroke-width: 3;
           stroke-linejoin: round;
           stroke-linecap: round;
	}

    /* Luis Cordeiro dark theme*/
    @media (prefers-color-scheme: dark) {
      path { fill: #ffffff; }
    }
  </style>

<path d="M0 0 C0 0.66 0 1.32 0 2 C0.57363281 2.02578125 1.14726562 2.0515625 1.73828125 2.078125 C11.34880282 2.71979867 20.62239853 4.91068983 30 7 C30 7.66 30 8.32 30 9 C32.97 9.66 35.94 10.32 39 11 C38 15 38 15 36.31738281 16.7043457 C33.41999486 18.32428227 31.22988117 18.51966444 27.921875 18.73046875 C26.76171875 18.81103516 25.6015625 18.89160156 24.40625 18.97460938 C23.1996875 19.04486328 21.993125 19.11511719 20.75 19.1875 C18.91695313 19.3102832 18.91695313 19.3102832 17.046875 19.43554688 C14.03182091 19.63576531 11.01651648 19.82343425 8 20 C8 20.66 8 21.32 8 22 C4.75195713 22.84109099 1.50127696 23.67150656 -1.75 24.5 C-2.67039062 24.73847656 -3.59078125 24.97695313 -4.5390625 25.22265625 C-5.42851562 25.44824219 -6.31796875 25.67382812 -7.234375 25.90625 C-8.05131836 26.11572266 -8.86826172 26.32519531 -9.70996094 26.54101562 C-12 27 -12 27 -16 27 C-16 27.66 -16 28.32 -16 29 C-17.74692795 29.67467562 -19.49768525 30.33944156 -21.25 31 C-22.22453125 31.37125 -23.1990625 31.7425 -24.203125 32.125 C-27 33 -27 33 -31 33 C-31.33 33.99 -31.66 34.98 -32 36 C-34.40625 37.2109375 -34.40625 37.2109375 -37.5 38.375 C-42.3266486 40.26769057 -46.72854711 42.39995868 -51.16015625 45.08203125 C-53 46 -53 46 -56 46 C-56.33 46.99 -56.66 47.98 -57 49 C-61.33333333 52 -61.33333333 52 -64 52 C-64.35771484 52.87591797 -64.35771484 52.87591797 -64.72265625 53.76953125 C-66.26281211 56.45891656 -67.97297908 57.82191027 -70.4375 59.6875 C-71.21996094 60.28949219 -72.00242187 60.89148438 -72.80859375 61.51171875 C-75 63 -75 63 -78 64 C-78.12375 64.5775 -78.2475 65.155 -78.375 65.75 C-79.31122871 69.12042337 -81.42059573 70.72766766 -84 73 C-85.485 73.495 -85.485 73.495 -87 74 C-87 74.99 -87 75.98 -87 77 C-88.62102968 78.71108689 -90.29503463 80.37253306 -92 82 C-94.83758109 85.24294982 -96.4302712 88.02335371 -98 92 C-99 93 -100 94 -101 95 C-102.0252633 96.98716763 -103.02096607 98.98965362 -104 101 C-104.53238281 102.02996094 -105.06476563 103.05992188 -105.61328125 104.12109375 C-109.37279843 111.45863418 -112.66247263 118.83936054 -115.640625 126.52734375 C-117 130 -117 130 -118.62890625 133.3828125 C-120.25828702 137.68140677 -120.55095532 141.38471028 -120.6875 145.9375 C-120.72166016 146.71673828 -120.75582031 147.49597656 -120.79101562 148.29882812 C-120.8726071 150.19874393 -120.93799885 152.09934403 -121 154 C-120.01 153.95359375 -119.02 153.9071875 -118 153.859375 C-110.45386658 153.61203907 -104.4103638 153.51274534 -98 158 C-97.67 158.99 -97.34 159.98 -97 161 C-96.2575 161.2475 -95.515 161.495 -94.75 161.75 C-90.90476495 163.49783412 -89.02301324 166.3499676 -87 170 C-87 170.66 -87 171.32 -87 172 C-85.7625 172.4021875 -85.7625 172.4021875 -84.5 172.8125 C-83.345 173.204375 -82.19 173.59625 -81 174 C-80.3503125 174.18304688 -79.700625 174.36609375 -79.03125 174.5546875 C-72.35072053 176.63592937 -68.87655548 180.57324651 -65.5625 186.625 C-64.90175175 189.41482593 -65.37060146 191.23432176 -66 194 C-67.19496094 194.04898438 -68.38992188 194.09796875 -69.62109375 194.1484375 C-85.47144238 194.80018912 -85.47144238 194.80018912 -99.95703125 200.78125 C-102 202 -102 202 -104.14453125 203.03125 C-106.16643166 203.95696381 -106.16643166 203.95696381 -107.875 206 C-110 208 -110 208 -113.125 209 C-116.08936131 209.65623275 -116.08936131 209.65623275 -116.8984375 211.796875 C-118.30583043 214.61166086 -120.14048503 216.18159402 -122.5 218.25 C-123.2940625 218.95640625 -124.088125 219.6628125 -124.90625 220.390625 C-127 222 -127 222 -129 222 C-129 222.66 -129 223.32 -129 224 C-129.66 224 -130.32 224 -131 224 C-131 224.66 -131 225.32 -131 226 C-131.65484375 226.35191406 -132.3096875 226.70382813 -132.984375 227.06640625 C-134.35335937 227.80697266 -134.35335937 227.80697266 -135.75 228.5625 C-136.75546875 229.10519531 -137.7609375 229.64789063 -138.796875 230.20703125 C-140.89862691 231.38349969 -142.9737159 232.60920308 -145.015625 233.88671875 C-151.62254587 238.01172039 -157.22224552 240.24978352 -165 241 C-165 241.66 -165 242.32 -165 243 C-168.98902976 243.94538785 -172.70995553 244.12891858 -176.8046875 244.1328125 C-178.11050781 244.13410156 -179.41632813 244.13539063 -180.76171875 244.13671875 C-181.4376709 244.13462402 -182.11362305 244.1325293 -182.81005859 244.13037109 C-184.86172949 244.12503452 -186.91317974 244.13032114 -188.96484375 244.13671875 C-190.27324219 244.13542969 -191.58164063 244.13414062 -192.9296875 244.1328125 C-194.11804199 244.13168457 -195.30639648 244.13055664 -196.53076172 244.12939453 C-200.08186006 243.99694681 -203.49365311 243.56376997 -207 243 C-207 242.34 -207 241.68 -207 241 C-210.63 241 -214.26 241 -218 241 C-218 241.66 -218 242.32 -218 243 C-219.79296875 244.3671875 -219.79296875 244.3671875 -222.1875 245.875 C-224.90574989 247.61604546 -227.37969787 249.31366346 -229.875 251.375 C-232 253 -232 253 -235 253 C-235.3403125 253.8971875 -235.3403125 253.8971875 -235.6875 254.8125 C-237.35609042 257.59348403 -239.1283832 258.5641916 -242 260 C-242.66 260 -243.32 260 -244 260 C-244 260.66 -244 261.32 -244 262 C-247.63 262 -251.26 262 -255 262 C-255 261.34 -255 260.68 -255 260 C-255.99 259.896875 -256.98 259.79375 -258 259.6875 C-262.28297163 259.09191294 -265.99996371 257.61404973 -270 256 C-270 255.01 -270 254.02 -270 253 C-270.78375 252.9175 -271.5675 252.835 -272.375 252.75 C-275 252 -275 252 -276.125 250 C-276.41375 249.34 -276.7025 248.68 -277 248 C-277.99 247.67 -278.98 247.34 -280 247 C-280 246.34 -280 245.68 -280 245 C-280.66 245 -281.32 245 -282 245 C-284.41685712 240.77050005 -285.34833144 237.87664009 -285 233 C-285.66 233 -286.32 233 -287 233 C-287.89214652 230.32356043 -288.13540211 228.74615622 -288.125 226 C-288.12757813 225.319375 -288.13015625 224.63875 -288.1328125 223.9375 C-288 222 -288 222 -287 219 C-286.34 219 -285.68 219 -285 219 C-285 218.34 -285 217.68 -285 217 C-278.65758005 215.84683274 -272.43311296 215.90492937 -266 216 C-266 215.34 -266 214.68 -266 214 C-257.60352122 212.11918875 -249.66508753 210.44951209 -241 211 C-241 210.34 -241 209.68 -241 209 C-240.36191406 208.80664062 -239.72382813 208.61328125 -239.06640625 208.4140625 C-238.24011719 208.15367187 -237.41382813 207.89328125 -236.5625 207.625 C-235.73878906 207.36976563 -234.91507813 207.11453125 -234.06640625 206.8515625 C-231.82201984 206.19117773 -231.82201984 206.19117773 -231 204 C-230.01 204 -229.02 204 -228 204 C-227.34 202.35 -226.68 200.7 -226 199 C-225.01 199 -224.02 199 -223 199 C-223 194.05 -223 189.1 -223 184 C-223.99 183.67 -224.98 183.34 -226 183 C-227.46484375 181.29296875 -227.46484375 181.29296875 -228.9375 179.1875 C-230.66469228 176.77546091 -232.23911156 174.76718085 -234.375 172.6875 C-236 171 -236 171 -236 168 C-236.804375 167.71125 -237.60875 167.4225 -238.4375 167.125 C-241 166 -241 166 -242 164 C-242.598125 163.71125 -243.19625 163.4225 -243.8125 163.125 C-246.39883784 161.7948834 -247.94905759 160.05094241 -250 158 C-250.9075 157.46375 -251.815 156.9275 -252.75 156.375 C-253.4925 155.92125 -254.235 155.4675 -255 155 C-255 154.34 -255 153.68 -255 153 C-256.1446875 152.6596875 -256.1446875 152.6596875 -257.3125 152.3125 C-260.4056089 151.21156294 -263.22997716 149.96923006 -266.1875 148.5625 C-271.65084348 146.02594767 -277.15091237 144.39156243 -283 143 C-283 142.34 -283 141.68 -283 141 C-283.60585938 140.93941406 -284.21171875 140.87882813 -284.8359375 140.81640625 C-285.67382812 140.73261719 -286.51171875 140.64882812 -287.375 140.5625 C-288.29925781 140.47226563 -289.22351563 140.38203125 -290.17578125 140.2890625 C-291.88344048 140.11428133 -293.58986805 139.92563844 -295.29296875 139.7109375 C-307.79169762 138.20506655 -320.03756925 138.80943562 -332.5 140.3125 C-333.50240723 140.43012695 -334.50481445 140.54775391 -335.53759766 140.66894531 C-340.94549388 141.37342221 -345.86394394 142.45912831 -350.99365234 144.30639648 C-353.80215531 145.27730874 -356.64578044 145.82386526 -359.5625 146.375 C-365.78511158 147.64256903 -371.7396265 149.37759362 -377.75805664 151.37451172 C-380.63816609 152.31993816 -382.94498998 153 -386 153 C-386 153.66 -386 154.32 -386 155 C-397.52164009 159.59225513 -397.52164009 159.59225513 -403 159 C-403.33 158.01 -403.66 157.02 -404 156 C-403.505 155.01 -403.505 155.01 -403 154 C-402.34 154 -401.68 154 -401 154 C-400.5359375 153.071875 -400.5359375 153.071875 -400.0625 152.125 C-399.375 150.75 -398.6875 149.375 -398 148 C-397.34 148 -396.68 148 -396 148 C-395.67 147.01 -395.34 146.02 -395 145 C-393.3603279 143.63360658 -391.68889872 142.3050581 -390 141 C-389.236875 140.236875 -388.47375 139.47375 -387.6875 138.6875 C-385.44556452 136.44556452 -383.17348408 134.30130524 -380.8125 132.1875 C-380.13832031 131.58292969 -379.46414063 130.97835937 -378.76953125 130.35546875 C-377 129 -377 129 -375 129 C-374.67 128.01 -374.34 127.02 -374 126 C-369.66666667 123 -369.66666667 123 -367 123 C-366.773125 122.401875 -366.54625 121.80375 -366.3125 121.1875 C-364.63289954 118.38816589 -362.90894875 117.41899939 -360 116 C-359.01 116 -358.02 116 -357 116 C-357 115.34 -357 114.68 -357 114 C-356.34 114 -355.68 114 -355 114 C-355 113.34 -355 112.68 -355 112 C-349.375 109 -349.375 109 -346 109 C-346 108.34 -346 107.68 -346 107 C-342.27034861 104.96564469 -340.33094958 104 -336 104 C-336 103.34 -336 102.68 -336 102 C-333.8765984 101.16260219 -331.7512272 100.33019717 -329.625 99.5 C-327.84996094 98.80390625 -327.84996094 98.80390625 -326.0390625 98.09375 C-323 97 -323 97 -321 97 C-321 96.34 -321 95.68 -321 95 C-319.15535156 94.49339844 -319.15535156 94.49339844 -317.2734375 93.9765625 C-315.64060198 93.52612511 -314.00779076 93.07559962 -312.375 92.625 C-311.56675781 92.40328125 -310.75851562 92.1815625 -309.92578125 91.953125 C-306.59357182 91.03202646 -303.3024243 90.10612779 -300.0390625 88.9609375 C-290.82187094 86.04650418 -281.9436526 85.64890302 -272.3125 85.6875 C-271.32077789 85.6877417 -271.32077789 85.6877417 -270.309021 85.68798828 C-260.54515359 85.70456983 -251.39113553 86.23208637 -242 89 C-242 89.66 -242 90.32 -242 91 C-241.34773437 91.12117188 -240.69546875 91.24234375 -240.0234375 91.3671875 C-227.12187185 93.84093903 -227.12187185 93.84093903 -224.5859375 96.4609375 C-222.80440535 98.18981352 -221.37102621 98.80621904 -219.0625 99.6875 C-211.07654029 103.07271042 -203.51658832 108.29203943 -197 114 C-197 114.66 -197 115.32 -197 116 C-196.278125 116.226875 -195.55625 116.45375 -194.8125 116.6875 C-191.43567583 118.26335128 -189.44232961 120.20876616 -187 123 C-187 123.66 -187 124.32 -187 125 C-183.04 125.33 -179.08 125.66 -175 126 C-175.12375 124.659375 -175.2475 123.31875 -175.375 121.9375 C-175.39020674 111.21674501 -168.92394392 100.25962905 -164 91 C-163.34 91 -162.68 91 -162 91 C-162.0825 90.2575 -162.165 89.515 -162.25 88.75 C-161.91894619 85.10840814 -160.60336287 84.53300171 -158 82 C-156.65761393 79.78950937 -155.4479575 77.52748036 -154.23046875 75.24609375 C-152.65904123 72.37761494 -150.82778008 69.71015667 -149 67 C-148.690625 66.319375 -148.38125 65.63875 -148.0625 64.9375 C-146.53036551 62.14360769 -144.25107127 60.25107127 -142 58 C-140.4333366 55.98226642 -138.92893373 53.92577657 -137.421875 51.86328125 C-135.78394626 49.71687464 -133.94262851 47.87067931 -132 46 C-131.67 45.34 -131.34 44.68 -131 44 C-130.01 44 -129.02 44 -128 44 C-127.62875 43.13375 -127.62875 43.13375 -127.25 42.25 C-125.17445909 38.51402637 -123.06826056 36.35608685 -119 35 C-118.67 34.01 -118.34 33.02 -118 32 C-116.06640625 30.640625 -116.06640625 30.640625 -113.5625 29.25 C-109.86000514 27.1297679 -106.38273709 24.89142709 -102.9375 22.375 C-92.58633592 15 -92.58633592 15 -87 15 C-87 14.34 -87 13.68 -87 13 C-84.89748139 12.32815382 -82.79292237 11.66269032 -80.6875 11 C-78.92986328 10.443125 -78.92986328 10.443125 -77.13671875 9.875 C-74 9 -74 9 -71 9 C-71 8.34 -71 7.68 -71 7 C-67.35769094 6.15074525 -63.71069486 5.32357053 -60.0625 4.5 C-59.04091797 4.26152344 -58.01933594 4.02304687 -56.96679688 3.77734375 C-50.82202239 2.40311303 -45.29531899 1.73742152 -39 2 C-39 1.34 -39 0.68 -39 0 C-25.81107445 -0.98477311 -13.19737135 -1.06491757 0 0 Z "  transform="translate(437,24)"/>
<path d="M0 0 C5.06515613 1.15521105 8.15845751 3.96241056 11.5625 7.8125 C12.2446581 9.13797446 12.91386474 10.47030236 13.5625 11.8125 C14.88642972 12.82491685 16.21849167 13.82689389 17.5625 14.8125 C17.5625 15.4725 17.5625 16.1325 17.5625 16.8125 C18.119375 17.080625 18.67625 17.34875 19.25 17.625 C20.013125 18.016875 20.77625 18.40875 21.5625 18.8125 C22.449375 19.26625 23.33625 19.72 24.25 20.1875 C26.95614803 22.08911753 26.87132476 22.75158109 27.5625 25.8125 C28.87897119 26.51187532 30.21272151 27.17979133 31.5625 27.8125 C31.8925 28.8025 32.2225 29.7925 32.5625 30.8125 C34.44401362 31.40294368 34.44401362 31.40294368 36.5625 31.8125 C38.28125 32.79296875 38.28125 32.79296875 40.0625 34 C49.23501667 39.85085163 58.6085312 43.70120674 68.99609375 46.734375 C72.5625 47.8125 72.5625 47.8125 75.16015625 48.890625 C79.83230317 50.6835139 84.55570601 50.93971676 89.51953125 50.9453125 C90.63263672 50.94660156 91.74574219 50.94789063 92.89257812 50.94921875 C94.04177734 50.94535156 95.19097656 50.94148438 96.375 50.9375 C97.51259766 50.94136719 98.65019531 50.94523437 99.82226562 50.94921875 C106.15398794 50.94191151 112.28605205 50.65291705 118.5625 49.8125 C118.5625 49.1525 118.5625 48.4925 118.5625 47.8125 C120.97679769 46.97169981 123.39353993 46.13968598 125.8125 45.3125 C126.49441406 45.07402344 127.17632812 44.83554687 127.87890625 44.58984375 C131.32663003 43.41828713 133.87952904 42.8125 137.5625 42.8125 C137.5625 42.1525 137.5625 41.4925 137.5625 40.8125 C140.5325 39.8225 143.5025 38.8325 146.5625 37.8125 C146.5625 37.1525 146.5625 36.4925 146.5625 35.8125 C147.832053 35.16415346 149.10319706 34.51892185 150.375 33.875 C151.08269531 33.51535156 151.79039062 33.15570313 152.51953125 32.78515625 C154.5625 31.8125 154.5625 31.8125 157.5625 30.8125 C157.871875 30.1525 158.18125 29.4925 158.5 28.8125 C158.850625 28.1525 159.20125 27.4925 159.5625 26.8125 C160.88844105 26.45087971 162.22188457 26.11521961 163.5625 25.8125 C163.8925 24.8225 164.2225 23.8325 164.5625 22.8125 C165.2225 22.8125 165.8825 22.8125 166.5625 22.8125 C166.5625 22.1525 166.5625 21.4925 166.5625 20.8125 C168.2125 20.1525 169.8625 19.4925 171.5625 18.8125 C171.5625 18.1525 171.5625 17.4925 171.5625 16.8125 C173.03964466 15.59225006 174.52101761 14.37496266 176.0546875 13.2265625 C177.81044508 11.5799712 178.50791299 9.96286883 179.5625 7.8125 C182.09234996 4.8313795 184.75653166 2.20261607 188.66015625 1.359375 C192.37503783 1.27605055 195.45345253 1.73980169 198.5625 3.8125 C198.5625 4.8025 198.5625 5.7925 198.5625 6.8125 C199.18125 6.895 199.8 6.9775 200.4375 7.0625 C202.5625 7.8125 202.5625 7.8125 203.625 9.75 C204.0890625 10.7709375 204.0890625 10.7709375 204.5625 11.8125 C205.5525 12.4725 206.5425 13.1325 207.5625 13.8125 C207.5625 14.4725 207.5625 15.1325 207.5625 15.8125 C208.09875 16.06 208.635 16.3075 209.1875 16.5625 C213.48072654 18.82209292 217.14547731 21.39547731 220.5625 24.8125 C222.1403125 25.8334375 222.1403125 25.8334375 223.75 26.875 C224.678125 27.514375 225.60625 28.15375 226.5625 28.8125 C226.5625 29.4725 226.5625 30.1325 226.5625 30.8125 C227.8825 31.1425 229.2025 31.4725 230.5625 31.8125 C230.5625 32.4725 230.5625 33.1325 230.5625 33.8125 C231.20058594 33.93367188 231.83867187 34.05484375 232.49609375 34.1796875 C233.73552734 34.43105469 233.73552734 34.43105469 235 34.6875 C235.82371094 34.84992188 236.64742188 35.01234375 237.49609375 35.1796875 C238.17800781 35.38851562 238.85992187 35.59734375 239.5625 35.8125 C239.8925 36.4725 240.2225 37.1325 240.5625 37.8125 C242.90636809 38.72281272 242.90636809 38.72281272 245.625 39.4375 C246.54410156 39.69789063 247.46320313 39.95828125 248.41015625 40.2265625 C249.12042969 40.41992188 249.83070313 40.61328125 250.5625 40.8125 C250.5625 41.4725 250.5625 42.1325 250.5625 42.8125 C251.14515625 42.84988281 251.7278125 42.88726562 252.328125 42.92578125 C258.31448821 43.40581981 263.84608382 44.57552999 269.64453125 46.11328125 C273.61443037 47.06456899 277.4980119 47.47379266 281.5625 47.8125 C281.5625 48.4725 281.5625 49.1325 281.5625 49.8125 C283.5425 49.8125 285.5225 49.8125 287.5625 49.8125 C287.5625 50.4725 287.5625 51.1325 287.5625 51.8125 C289.2125 52.4725 290.8625 53.1325 292.5625 53.8125 C292.67073773 56.06143954 292.74819645 58.31187575 292.8125 60.5625 C292.85890625 61.81546875 292.9053125 63.0684375 292.953125 64.359375 C292.5625 67.8125 292.5625 67.8125 291.0390625 70.2421875 C287.62575343 72.40646233 284.59576522 72.32709648 280.6875 72.1875 C279.94314697 72.17460937 279.19879395 72.16171875 278.43188477 72.1484375 C271.38583095 71.95656538 264.50212786 71.04425645 257.5625 69.8125 C257.5625 69.1525 257.5625 68.4925 257.5625 67.8125 C256.28375 67.750625 255.005 67.68875 253.6875 67.625 C248.89287244 67.10058761 245.40826317 65.43072725 241.203125 63.15625 C236.82670682 60.92919696 232.20409183 59.39205311 227.5625 57.8125 C227.5625 57.1525 227.5625 56.4925 227.5625 55.8125 C225.21967832 54.55098063 223.05759909 53.6579385 220.5 52.875 C217.53764821 51.80351106 216.58529121 51.09913355 214.5625 48.8125 C213.675625 48.131875 212.78875 47.45125 211.875 46.75 C211.111875 46.110625 210.34875 45.47125 209.5625 44.8125 C209.5625 44.1525 209.5625 43.4925 209.5625 42.8125 C208.9025 42.60625 208.2425 42.4 207.5625 42.1875 C204.78918053 40.91639524 203.16953339 39.69081222 200.875 37.75 C196.36760669 34.20786109 192.17299481 33.83549383 186.5625 33.8125 C186.5625 34.4725 186.5625 35.1325 186.5625 35.8125 C182.09191176 39.8125 182.09191176 39.8125 179.5625 39.8125 C179.5625 40.4725 179.5625 41.1325 179.5625 41.8125 C177.91796875 43.5390625 177.91796875 43.5390625 175.75 45.4375 C175.04230469 46.06914062 174.33460938 46.70078125 173.60546875 47.3515625 C171.5625 48.8125 171.5625 48.8125 168.5625 48.8125 C168.5625 49.8025 168.5625 50.7925 168.5625 51.8125 C161.8125 55.8125 161.8125 55.8125 159.5625 55.8125 C159.2325 56.8025 158.9025 57.7925 158.5625 58.8125 C155.57790871 60.76792188 154.29835209 60.8125 150.5625 60.8125 C150.2325 61.8025 149.9025 62.7925 149.5625 63.8125 C147.6015625 64.98046875 147.6015625 64.98046875 145.1875 66 C144.39601563 66.34417969 143.60453125 66.68835938 142.7890625 67.04296875 C140.5625 67.8125 140.5625 67.8125 137.5625 67.8125 C137.5625 68.4725 137.5625 69.1325 137.5625 69.8125 C135.02398538 70.65666163 132.48239146 71.48797299 129.9375 72.3125 C128.86822266 72.67021484 128.86822266 72.67021484 127.77734375 73.03515625 C123.56943976 74.38631808 120.04013202 75.09500044 115.5625 74.8125 C115.5625 75.4725 115.5625 76.1325 115.5625 76.8125 C108.85786453 77.67805745 102.3191212 77.96549705 95.5625 77.9375 C94.16257812 77.94330078 94.16257812 77.94330078 92.734375 77.94921875 C84.49358782 77.93770927 76.90482477 77.50648242 69.11328125 74.7109375 C65.93485749 73.59143143 62.72263805 72.60959797 59.5 71.625 C58.37464844 71.28082031 57.24929687 70.93664062 56.08984375 70.58203125 C55.25582031 70.32808594 54.42179688 70.07414062 53.5625 69.8125 C53.5625 69.1525 53.5625 68.4925 53.5625 67.8125 C53.046875 67.709375 52.53125 67.60625 52 67.5 C48.01544774 66.37615193 44.26134816 64.66192408 40.5625 62.8125 C40.5625 62.1525 40.5625 61.4925 40.5625 60.8125 C39.86125 60.73 39.16 60.6475 38.4375 60.5625 C34.84250496 59.62467521 32.576067 57.98226824 29.5625 55.8125 C28.923125 55.38195312 28.28375 54.95140625 27.625 54.5078125 C25.89851988 53.33129984 24.22587235 52.07666299 22.5625 50.8125 C22.5625 50.1525 22.5625 49.4925 22.5625 48.8125 C21.4796875 48.4721875 21.4796875 48.4721875 20.375 48.125 C16.97085541 46.53639919 15.19283337 44.50261368 12.5625 41.8125 C6.86352612 36.38704226 6.86352612 36.38704226 -0.375 33.875 C-5.35574482 34.28588639 -8.7542988 37.86896456 -12.3359375 41.0625 C-14.4375 42.8125 -14.4375 42.8125 -16.4375 42.8125 C-16.4375 43.4725 -16.4375 44.1325 -16.4375 44.8125 C-16.98019531 45.06644531 -17.52289063 45.32039063 -18.08203125 45.58203125 C-19.15517578 46.09830078 -19.15517578 46.09830078 -20.25 46.625 C-20.95769531 46.96144531 -21.66539062 47.29789062 -22.39453125 47.64453125 C-24.47853879 48.83596195 -25.79304653 50.08080762 -27.4375 51.8125 C-32.77743268 56.27018293 -38.20596265 60.54240187 -45.375 61 C-46.3959375 60.9071875 -46.3959375 60.9071875 -47.4375 60.8125 C-47.4375 61.4725 -47.4375 62.1325 -47.4375 62.8125 C-54.10953894 65.20331395 -60.35046261 67.26734328 -67.4375 67.8125 C-67.4375 68.4725 -67.4375 69.1325 -67.4375 69.8125 C-73.32661702 72.75705851 -81.7081496 72.10015856 -88.1875 72.25 C-89.01121094 72.29576172 -89.83492187 72.34152344 -90.68359375 72.38867188 C-96.50200411 72.49642021 -96.50200411 72.49642021 -99.11157227 70.58862305 C-101.00204525 68.46079328 -102.28149568 66.41578944 -102.99609375 63.65234375 C-102.5064996 55.96097766 -102.5064996 55.96097766 -100.4375 52.8125 C-96.45052384 50.67134613 -93.98515452 49.8125 -89.4375 49.8125 C-89.4375 49.1525 -89.4375 48.4925 -89.4375 47.8125 C-86.25065572 47.1634032 -83.06291405 46.51882052 -79.875 45.875 C-78.97974609 45.69259766 -78.08449219 45.51019531 -77.16210938 45.32226562 C-72.26513134 44.33569496 -67.39125656 43.45805127 -62.4375 42.8125 C-62.4375 42.1525 -62.4375 41.4925 -62.4375 40.8125 C-61.61507812 40.58175781 -60.79265625 40.35101563 -59.9453125 40.11328125 C-53.45582755 38.21739246 -47.50111063 36.10009905 -41.55859375 32.86328125 C-39.4375 31.8125 -39.4375 31.8125 -37.21484375 31.28125 C-36.33505859 31.04921875 -36.33505859 31.04921875 -35.4375 30.8125 C-35.14875 30.214375 -34.86 29.61625 -34.5625 29 C-32.93690708 25.83912489 -30.39668415 24.70637786 -27.4375 22.8125 C-26.695 22.07 -25.9525 21.3275 -25.1875 20.5625 C-24.61 19.985 -24.0325 19.4075 -23.4375 18.8125 C-22.7775 18.8125 -22.1175 18.8125 -21.4375 18.8125 C-21.4375 18.1525 -21.4375 17.4925 -21.4375 16.8125 C-16.02573529 12.8125 -16.02573529 12.8125 -13.4375 12.8125 C-13.1075 11.4925 -12.7775 10.1725 -12.4375 8.8125 C-11.7775 8.8125 -11.1175 8.8125 -10.4375 8.8125 C-10.4375 8.1525 -10.4375 7.4925 -10.4375 6.8125 C-7.43052834 3.28456364 -4.52547426 1.06965755 0 0 Z "  transform="translate(165.4375,323.1875)"/>
<path d="M0 0 C0.495 1.485 0.495 1.485 1 3 C1.7425 3.28875 2.485 3.5775 3.25 3.875 C7.46191282 5.59805524 9.86178779 8.69252778 12.8125 12.08203125 C19.54253933 19.79791619 26.08214975 25.78461545 35.09375 30.73828125 C35.7228125 31.15464844 36.351875 31.57101562 37 32 C37 32.66 37 33.32 37 34 C37.70125 34.268125 38.4025 34.53625 39.125 34.8125 C42.1649824 36.0681449 45.0727774 37.50235123 48 39 C48 39.66 48 40.32 48 41 C48.87483032 41.21281616 48.87483032 41.21281616 49.76733398 41.42993164 C53.94760152 42.49728262 58.06477972 43.81815158 62.18554688 45.09570312 C85.26423736 52.03807343 111.33645697 51.31338219 133.5078125 41.4375 C136.12494792 40.02242754 136.12494792 40.02242754 138.625 37.8125 C141 36 141 36 145 36 C145 35.34 145 34.68 145 34 C148.75899378 30.48352195 152.71223057 27.33048559 158 27 C158 26.34 158 25.68 158 25 C158.73863281 24.57074219 159.47726562 24.14148438 160.23828125 23.69921875 C163.37415029 21.76979438 164.99511267 19.75123195 167.1875 16.8125 C168.41355395 15.17385429 169.67463987 13.55941931 171 12 C171.66 12 172.32 12 173 12 C173 11.34 173 10.68 173 10 C174.6796875 8.2734375 174.6796875 8.2734375 176.875 6.375 C177.59429687 5.74335938 178.31359375 5.11171875 179.0546875 4.4609375 C181 3 181 3 183 3 C183 2.34 183 1.68 183 1 C186.39353269 0.15161683 188.70052977 -0.23888154 192 1 C193.7109375 2.70703125 193.7109375 2.70703125 195.375 4.8125 C198.27549081 8.30302641 201.17321018 10.53384656 205 13 C206.35386936 14.65002828 207.68678142 16.3174387 209 18 C215.13527627 23.46839841 221.5212899 27.3762108 228.92578125 30.8515625 C231 32 231 32 232 34 C233.95130939 34.89662523 235.93682569 35.71971323 237.9375 36.5 C243.78669276 38.78669276 243.78669276 38.78669276 246 41 C254.91410143 44.63898445 264.17551867 45.26831129 273.69140625 46.19726562 C284.31823271 47.4503775 284.31823271 47.4503775 287.328125 50.8203125 C289.68482922 55.30245556 290.30243306 58.96784992 290 64 C288.44915304 67.72203271 287.37276276 68.75149149 284 71 C266.68048134 73.22310239 246.89423773 67.50742342 231 61 C231 60.34 231 59.68 231 59 C230.37351562 58.79503906 229.74703125 58.59007812 229.1015625 58.37890625 C228.28429687 58.10949219 227.46703125 57.84007812 226.625 57.5625 C225.81289063 57.29566406 225.00078125 57.02882813 224.1640625 56.75390625 C222 56 222 56 220 55 C220 54.01 220 53.02 220 52 C219.05125 51.690625 218.1025 51.38125 217.125 51.0625 C214 50 214 50 212 49 C212 48.34 212 47.68 212 47 C211.113125 46.773125 210.22625 46.54625 209.3125 46.3125 C205.52082069 44.8101365 203.78686335 42.92977942 201 40 C200.113125 39.505 199.22625 39.01 198.3125 38.5 C195.4948644 36.67234447 194.94054511 35.16365173 194 32 C190.59984831 32.07137723 187.32536558 32.26044709 184 33 C181.59593616 35.37842577 181.59593616 35.37842577 180 38 C178.67139075 38.35169068 177.33841672 38.68770276 176 39 C175.75507813 39.57492187 175.51015625 40.14984375 175.2578125 40.7421875 C173.47036091 43.95071861 170.97778843 45.44726808 168 47.5625 C163.46766381 50.75830502 163.46766381 50.75830502 160 55 C158.125 56.16796875 158.125 56.16796875 156 57.1875 C155.29875 57.53167969 154.5975 57.87585938 153.875 58.23046875 C152 59 152 59 150 59 C150 59.66 150 60.32 150 61 C147.12709627 62.29636515 144.25131838 63.58623099 141.375 64.875 C140.56675781 65.23980469 139.75851562 65.60460937 138.92578125 65.98046875 C127.70028409 71 127.70028409 71 122 71 C122 71.66 122 72.32 122 73 C113.01306263 74.53763214 104.10820617 75.56578359 95 76 C93.99839844 76.05414063 92.99679687 76.10828125 91.96484375 76.1640625 C81.51975658 76.4605682 71.2820108 74.64488841 61 73 C61 72.34 61 71.68 61 71 C60.01773438 70.76216797 60.01773438 70.76216797 59.015625 70.51953125 C50.27782325 68.2857147 42.02726476 65.1180058 34 61 C34 60.34 34 59.68 34 59 C33.113125 58.731875 32.22625 58.46375 31.3125 58.1875 C25.58982623 56.13597544 22.2592196 53.2592196 18 49 C16.74333751 48.08439413 15.4719892 47.18864052 14.1875 46.3125 C13.135625 45.549375 12.08375 44.78625 11 44 C11 43.34 11 42.68 11 42 C10.01 42 9.02 42 8 42 C6.5625 40.03125 6.5625 40.03125 5 37.5 C2.78646959 34.45818079 1.83075821 33.17107134 -1.90234375 32.40234375 C-4.65116009 32.43418332 -7.28127027 32.60177738 -10 33 C-10 33.99 -10 34.98 -10 36 C-11.95597184 37.39712274 -13.9659094 38.71927629 -16 40 C-16.99 40.825 -17.98 41.65 -19 42.5 C-22.68983813 45.57486511 -26.53839897 48.15023196 -30.6875 50.5625 C-32.97032801 51.8320277 -32.97032801 51.8320277 -34.2890625 53.4375 C-36.54762852 55.50011737 -38.84356049 56.32687061 -41.6875 57.4375 C-45.29365393 58.87649412 -48.77204508 60.34205258 -52.1875 62.1875 C-55.64697821 63.97812019 -58.98669204 64.77167721 -62.796875 65.50390625 C-64.92074814 65.98215428 -66.74862508 66.6548816 -68.75 67.5 C-78.70357997 71.38288169 -92.56767361 73.25131424 -102.75 69.6875 C-105 68 -105 68 -106 65 C-106.52391654 60.00990965 -106.50847382 56.09517439 -104.375 51.5 C-99.44201758 46.30738693 -92.2047979 46.41695458 -85.4375 45.625 C-70.33169048 43.8013214 -70.33169048 43.8013214 -57 37 C-54.921875 36.26171875 -54.921875 36.26171875 -52.75 35.6875 C-48.33344888 34.32911997 -45.36035545 32.1761672 -41.796875 29.296875 C-39.60108482 27.71208731 -37.69534372 27.16845898 -35 27 C-35 26.34 -35 25.68 -35 25 C-33.33720673 23.9935725 -31.67016516 22.99414593 -30 22 C-29.01 20.515 -29.01 20.515 -28 19 C-27.01 19 -26.02 19 -25 19 C-24.505 17.515 -24.505 17.515 -24 16 C-22.5625 14.3125 -22.5625 14.3125 -21 13 C-20.34 13 -19.68 13 -19 13 C-19 12.34 -19 11.68 -19 11 C-18.195625 10.7525 -17.39125 10.505 -16.5625 10.25 C-15.716875 9.8375 -14.87125 9.425 -14 9 C-13.855625 8.401875 -13.71125 7.80375 -13.5625 7.1875 C-12.8071061 4.24985707 -11.09649885 2.82264593 -8.765625 0.97265625 C-5.87763667 -0.61829307 -3.19516459 -0.31951646 0 0 Z "  transform="translate(169,402)"/>
<path d="M0 0 C-0.33 0.99 -0.66 1.98 -1 3 C-2.22009766 2.89171875 -2.22009766 2.89171875 -3.46484375 2.78125 C-17.35249914 1.65649051 -30.65642726 1.6474582 -44.5 3.3125 C-46.00409424 3.48894043 -46.00409424 3.48894043 -47.53857422 3.66894531 C-52.93091493 4.37162994 -57.83517388 5.45072094 -62.94970703 7.29321289 C-65.97397351 8.33575296 -69.05301603 8.94268679 -72.1875 9.5625 C-75.62843238 10.24605222 -78.88836371 10.96242618 -82.21484375 12.08203125 C-85.28582534 13.09420611 -87.7878572 13.15295918 -91 13 C-90 11 -90 11 -88.13671875 10.19384766 C-86.92435547 9.807854 -86.92435547 9.807854 -85.6875 9.4140625 C-84.78572021 9.12490967 -83.88394043 8.83575684 -82.95483398 8.5378418 C-81.97973877 8.236604 -81.00464355 7.93536621 -80 7.625 C-78.99976807 7.31409424 -77.99953613 7.00318848 -76.96899414 6.68286133 C-51.75955586 -1.03751657 -26.20182992 -4.58532024 0 0 Z " transform="translate(149,161)"/>
<path d="M0 0 C2.89080199 1.40297754 5.28358144 2.86634082 7.75 4.9375 C8.36359375 5.44152344 8.9771875 5.94554687 9.609375 6.46484375 C11 8 11 8 11 11 C10.38125 10.690625 9.7625 10.38125 9.125 10.0625 C4.81197706 8.5960722 0.5240004 8.33380974 -4 8 C-4 8.66 -4 9.32 -4 10 C-8.47058824 14 -8.47058824 14 -11 14 C-11 14.66 -11 15.32 -11 16 C-12.64453125 17.7265625 -12.64453125 17.7265625 -14.8125 19.625 C-15.87404297 20.57246094 -15.87404297 20.57246094 -16.95703125 21.5390625 C-19 23 -19 23 -22 23 C-22 23.99 -22 24.98 -22 26 C-28.75 30 -28.75 30 -31 30 C-31.33 30.99 -31.66 31.98 -32 33 C-34.98459129 34.95542188 -36.26414791 35 -40 35 C-40.33 35.99 -40.66 36.98 -41 38 C-43.4613715 39.20718817 -45.82064765 40.22605697 -48.375 41.1875 C-49.06078125 41.46013672 -49.7465625 41.73277344 -50.453125 42.01367188 C-53.43594216 43.17139955 -55.77442504 44 -59 44 C-59 43.34 -59 42.68 -59 42 C-58.30777344 41.74347656 -57.61554688 41.48695313 -56.90234375 41.22265625 C-34.46353302 32.44225205 -16.4288559 17.28727683 0 0 Z " transform="translate(356,349)"/>
<path d="M0 0 C0 0.66 0 1.32 0 2 C-2.06172613 2.33808686 -4.1244203 2.67027361 -6.1875 3 C-7.33605469 3.185625 -8.48460937 3.37125 -9.66796875 3.5625 C-12.50415393 3.93489477 -15.14719564 4.08596021 -18 4 C-18 4.66 -18 5.32 -18 6 C-21.24804287 6.84109099 -24.49872304 7.67150656 -27.75 8.5 C-28.67039062 8.73847656 -29.59078125 8.97695313 -30.5390625 9.22265625 C-31.42851562 9.44824219 -32.31796875 9.67382812 -33.234375 9.90625 C-34.05131836 10.11572266 -34.86826172 10.32519531 -35.70996094 10.54101562 C-38 11 -38 11 -42 11 C-42 11.66 -42 12.32 -42 13 C-43.74692795 13.67467562 -45.49768525 14.33944156 -47.25 15 C-48.22453125 15.37125 -49.1990625 15.7425 -50.203125 16.125 C-53 17 -53 17 -57 17 C-57.495 18.485 -57.495 18.485 -58 20 C-60.40625 21.2109375 -60.40625 21.2109375 -63.5 22.375 C-68.3266486 24.26769057 -72.72854711 26.39995868 -77.16015625 29.08203125 C-79 30 -79 30 -82 30 C-82.33 30.99 -82.66 31.98 -83 33 C-84.84765625 34.16796875 -84.84765625 34.16796875 -87.0625 35.1875 C-87.79597656 35.53167969 -88.52945312 35.87585938 -89.28515625 36.23046875 C-89.85105469 36.48441406 -90.41695313 36.73835938 -91 37 C-88.67086584 31.94124707 -85.10892902 29.5655434 -80.3125 26.9375 C-76.83606769 25.22877121 -76.83606769 25.22877121 -75 22 C-73.33605325 21.65334443 -71.66866348 21.32318894 -70 21 C-67.46316121 19.77367417 -64.98385337 18.51170414 -62.5 17.1875 C-56.39693438 14.02378107 -50.42207766 11.61659129 -43.76953125 9.7890625 C-41.04238106 9.06935849 -41.04238106 9.06935849 -38.68823242 8.04272461 C-35.88522852 6.95548188 -33.1432925 6.22061274 -30.21875 5.52734375 C-29.12949219 5.26759766 -28.04023438 5.00785156 -26.91796875 4.74023438 C-25.79003906 4.47533203 -24.66210938 4.21042969 -23.5 3.9375 C-22.37207031 3.66873047 -21.24414062 3.39996094 -20.08203125 3.12304688 C-6.30236352 -0.14656659 -6.30236352 -0.14656659 0 0 Z " transform="translate(463,40)"/>
<path d="M0 0 C3.60397859 3.20979344 5.79897024 6.82822959 8 11.0625 C8.34667725 11.72282227 8.69335449 12.38314453 9.05053711 13.06347656 C11.83538977 18.47225311 14.63911084 24.04209155 16 30 C15.67 30.99 15.34 31.98 15 33 C14.52691406 32.33355469 14.05382812 31.66710937 13.56640625 30.98046875 C7.67868931 22.77439154 1.70948151 14.48704443 -5.5625 7.4375 C-6.366875 6.633125 -7.17125 5.82875 -8 5 C-8 4.34 -8 3.68 -8 3 C-5.36 3 -2.72 3 0 3 C0 2.01 0 1.02 0 0 Z " transform="translate(263,149)"/>
<path d="M0 0 C-0.33 0.66 -0.66 1.32 -1 2 C-3.64860427 2.59355614 -6.29197322 2.74209269 -9 3 C-9 3.66 -9 4.32 -9 5 C-10.65 5 -12.3 5 -14 5 C-14 5.66 -14 6.32 -14 7 C-20.70463547 7.86555745 -27.2433788 8.15299705 -34 8.125 C-34.93328125 8.12886719 -35.8665625 8.13273437 -36.828125 8.13671875 C-52.34260003 8.11505049 -52.34260003 8.11505049 -58 5 C-58 4.01 -58 3.02 -58 2 C-56.99195313 2.15984375 -55.98390625 2.3196875 -54.9453125 2.484375 C-48.95554849 3.22684245 -42.9494637 3.2229192 -36.92089844 3.24023438 C-34.89996209 3.24988085 -32.88007142 3.28095742 -30.859375 3.3125 C-22.90265325 3.34364177 -15.71574713 2.58984455 -7.99267578 0.64746094 C-5.21440931 0.04638714 -2.82887969 -0.12467807 0 0 Z " transform="translate(295,393)"/>
<path d="M0 0 C3.45639069 2.69767078 6.42418929 5.39393027 9.25 8.75 C12.74086106 12.85506602 16.61813461 16.37587849 20.66796875 19.921875 C22.86188941 21.87692657 24.94397059 23.90143205 27 26 C25.68 26 24.36 26 23 26 C23 25.34 23 24.68 23 24 C22.278125 23.773125 21.55625 23.54625 20.8125 23.3125 C17.40835541 21.72389919 15.63033337 19.69011368 13 17 C7.30102612 11.57454226 7.30102612 11.57454226 0.0625 9.0625 C-4.85028607 9.47517403 -8.11287101 12.95314679 -11.60546875 16.15234375 C-14.16065001 18.12395996 -15.82977588 18.64525023 -19 19 C-15.67141426 14.73524953 -12.11891891 11.2520533 -8.00390625 7.74609375 C-5.19168361 5.29567753 -2.60406488 2.6691665 0 0 Z " transform="translate(165,348)"/>
<path d="M0 0 C2.20001848 1.20631265 3.31094724 2.41867291 4.859375 4.39453125 C7.98864195 8.12402398 11.30784754 11.51188447 14.859375 14.83203125 C15.34535156 15.2997998 15.83132812 15.76756836 16.33203125 16.24951172 C19.95607251 19.5945018 23.31407771 21.30936314 27.859375 23.01953125 C27.859375 24.66953125 27.859375 26.31953125 27.859375 28.01953125 C22.93361496 25.30533694 18.30885847 22.47015108 13.859375 19.01953125 C13.859375 18.35953125 13.859375 17.69953125 13.859375 17.01953125 C12.869375 17.01953125 11.879375 17.01953125 10.859375 17.01953125 C9.3515625 15.05078125 9.3515625 15.05078125 7.734375 12.51953125 C5.25807985 9.09447011 5.25807985 9.09447011 1.578125 7.31640625 C-3.17004328 7.22144288 -6.214516 8.28315225 -10.140625 11.01953125 C-10.800625 10.68953125 -11.460625 10.35953125 -12.140625 10.01953125 C-10.5730732 8.31736145 -8.98602716 6.63312571 -7.390625 4.95703125 C-6.50890625 4.01730469 -5.6271875 3.07757813 -4.71875 2.109375 C-2.140625 0.01953125 -2.140625 0.01953125 0 0 Z " transform="translate(166.140625,426.98046875)"/>
<path d="M0 0 C1.30195313 -0.00773437 2.60390625 -0.01546875 3.9453125 -0.0234375 C11.20338657 -0.00877472 17.95981539 0.43197586 25 2.25 C25 2.58 25 2.91 25 3.25 C8.83 3.25 -7.34 3.25 -24 3.25 C-24.33 4.24 -24.66 5.23 -25 6.25 C-28.25040883 7.518267 -31.79670715 7.54974946 -35.25 7.8125 C-36.32765625 7.89628906 -37.4053125 7.98007813 -38.515625 8.06640625 C-39.74539062 8.15728516 -39.74539062 8.15728516 -41 8.25 C-38.36998693 5.61998693 -36.07705128 5.2453534 -32.5 4.25 C-31.3346875 3.92 -30.169375 3.59 -28.96875 3.25 C-27.64729772 2.91090783 -26.32427165 2.57790887 -25 2.25 C-24.28328125 2.06469727 -23.5665625 1.87939453 -22.828125 1.68847656 C-15.24162847 -0.073123 -7.75776887 -0.04608576 0 0 Z " transform="translate(165,109.75)"/>
<path d="M0 0 C0.59167969 0.20496094 1.18335938 0.40992188 1.79296875 0.62109375 C1.19484375 0.88921875 0.59671875 1.15734375 -0.01953125 1.43359375 C-2.22908142 2.63306384 -3.45136578 3.84825796 -5.20703125 5.62109375 C-10.54696393 10.07877668 -15.9754939 14.35099562 -23.14453125 14.80859375 C-23.82515625 14.74671875 -24.50578125 14.68484375 -25.20703125 14.62109375 C-25.20703125 15.28109375 -25.20703125 15.94109375 -25.20703125 16.62109375 C-27.12108492 17.29522586 -29.03839151 17.96012695 -30.95703125 18.62109375 C-32.024375 18.99234375 -33.09171875 19.36359375 -34.19140625 19.74609375 C-37.20703125 20.62109375 -37.20703125 20.62109375 -41.20703125 20.62109375 C-41.20703125 19.96109375 -41.20703125 19.30109375 -41.20703125 18.62109375 C-39.73556641 18.110625 -39.73556641 18.110625 -38.234375 17.58984375 C-26.62253659 13.45870893 -15.80557963 8.40328398 -5.51953125 1.55859375 C-2.20703125 -0.37890625 -2.20703125 -0.37890625 0 0 Z " transform="translate(143.20703125,369.37890625)"/>
<path d="M0 0 C0 0.66 0 1.32 0 2 C0.67804688 2.04898437 1.35609375 2.09796875 2.0546875 2.1484375 C8.49299341 2.66564213 14.69732977 3.59181121 21 5 C21 5.33 21 5.66 21 6 C13.65115663 6.22382264 7.10280723 5.97947087 0 4 C-0.495 3.505 -0.495 3.505 -1 3 C-2.44445478 2.84217403 -3.89607377 2.74891568 -5.34765625 2.68359375 C-6.25628418 2.64161865 -7.16491211 2.59964355 -8.10107422 2.55639648 C-9.07834473 2.51716064 -10.05561523 2.4779248 -11.0625 2.4375 C-12.05008301 2.3950415 -13.03766602 2.35258301 -14.05517578 2.30883789 C-22.37506931 1.97445433 -30.67444072 1.89265038 -39 2 C-39 1.34 -39 0.68 -39 0 C-25.81107445 -0.98477311 -13.19737135 -1.06491757 0 0 Z " transform="translate(437,24)"/>
<path d="M0 0 C0 0.66 0 1.32 0 2 C-6.69567353 7.57972794 -17.93764039 6.20445212 -26.1875 6.25 C-27.60579102 6.2809375 -27.60579102 6.2809375 -29.05273438 6.3125 C-34.83894318 6.34475761 -38.86242515 5.70024681 -44 3 C-44 2.67 -44 2.34 -44 2 C-42.61663452 2.01571045 -42.61663452 2.01571045 -41.20532227 2.03173828 C-37.74435872 2.06606763 -34.2835793 2.0910183 -30.82250977 2.10986328 C-29.3319206 2.1198467 -27.84135064 2.13343822 -26.35083008 2.15087891 C-17.40923696 2.25279448 -8.67903052 0 0 0 Z " transform="translate(287,372)"/>
<path d="M0 0 C-7.24243794 7.24243794 -20.94838149 7.30808183 -30.41674805 7.39599609 C-47.07713099 7.307623 -47.07713099 7.307623 -51 6 C-51 5.34 -51 4.68 -51 4 C-40.77 4.33 -30.54 4.66 -20 5 C-20 4.34 -20 3.68 -20 3 C-13.12418702 0.8408662 -7.21471629 -0.35482211 0 0 Z " transform="translate(295,448)"/>
<path d="M0 0 C0 0.66 0 1.32 0 2 C-1.41042956 2.84384675 -2.82864132 3.67469496 -4.25 4.5 C-5.03890625 4.9640625 -5.8278125 5.428125 -6.640625 5.90625 C-9 7 -9 7 -13 7 C-13 7.99 -13 8.98 -13 10 C-16.64977257 12.90322818 -18.25852179 14 -23 14 C-23.25136719 14.59941406 -23.50273438 15.19882813 -23.76171875 15.81640625 C-25.16650809 18.29362153 -26.48305348 19.32960288 -28.8125 20.9375 C-33.25142674 24.12647625 -36.86857978 27.72715225 -40.5 31.8125 C-43 34 -43 34 -45.8125 34.3125 C-46.534375 34.209375 -47.25625 34.10625 -48 34 C-44.23225289 30.11807874 -40.37202211 26.20468119 -36 23 C-35.34 23 -34.68 23 -34 23 C-33.67 22.01 -33.34 21.02 -33 20 C-28.66666667 17 -28.66666667 17 -26 17 C-25.773125 16.401875 -25.54625 15.80375 -25.3125 15.1875 C-23.63289954 12.38816589 -21.90894875 11.41899939 -19 10 C-18.01 10 -17.02 10 -16 10 C-16 9.34 -16 8.68 -16 8 C-15.34 8 -14.68 8 -14 8 C-14 7.34 -14 6.68 -14 6 C-8.375 3 -8.375 3 -5 3 C-5 2.34 -5 1.68 -5 1 C-3 0 -3 0 0 0 Z " transform="translate(96,130)"/>
<path d="M0 0 C0 0.66 0 1.32 0 2 C-2.06172613 2.33808686 -4.1244203 2.67027361 -6.1875 3 C-7.91033203 3.2784375 -7.91033203 3.2784375 -9.66796875 3.5625 C-12.50415393 3.93489477 -15.14719564 4.08596021 -18 4 C-18 4.66 -18 5.32 -18 6 C-22.43595759 7.17258616 -26.87400568 8.33705612 -31.3125 9.5 C-32.57513672 9.83386719 -33.83777344 10.16773438 -35.13867188 10.51171875 C-36.95141602 10.98544922 -36.95141602 10.98544922 -38.80078125 11.46875 C-39.91622314 11.76201172 -41.03166504 12.05527344 -42.1809082 12.35742188 C-45 13 -45 13 -48 13 C-48 12.34 -48 11.68 -48 11 C-39.77944029 8.1099956 -31.54802604 5.7817149 -23.0625 3.8125 C-21.96615234 3.55275391 -20.86980469 3.29300781 -19.74023438 3.02539062 C-6.29124831 -0.1463081 -6.29124831 -0.1463081 0 0 Z " transform="translate(463,40)"/>
<path d="M0 0 C0.495 0.99 0.495 0.99 1 2 C-5.75 6 -5.75 6 -8 6 C-8.33 6.99 -8.66 7.98 -9 9 C-11.98459129 10.95542188 -13.26414791 11 -17 11 C-17.33 11.99 -17.66 12.98 -18 14 C-20.4613715 15.20718817 -22.82064765 16.22605697 -25.375 17.1875 C-26.06078125 17.46013672 -26.7465625 17.73277344 -27.453125 18.01367188 C-30.43594216 19.17139955 -32.77442504 20 -36 20 C-36 19.34 -36 18.68 -36 18 C-35.30777344 17.74347656 -34.61554688 17.48695313 -33.90234375 17.22265625 C-24.97189037 13.72813101 -17.11613425 9.0571945 -9 4 C-5.95914369 2.11857633 -3.53187894 0.65405165 0 0 Z " transform="translate(333,373)"/>
<path d="M0 0 C-0.33 0.66 -0.66 1.32 -1 2 C-3.0378418 2.65429688 -3.0378418 2.65429688 -5.69921875 3.21875 C-6.66150391 3.42886719 -7.62378906 3.63898438 -8.61523438 3.85546875 C-9.62908203 4.06816406 -10.64292969 4.28085938 -11.6875 4.5 C-17.57907615 5.76002601 -23.28996208 7.05805263 -29 9 C-32.375 9.125 -32.375 9.125 -35 9 C-34 7 -34 7 -31.94628906 6.14624023 C-31.06166992 5.86981689 -30.17705078 5.59339355 -29.265625 5.30859375 C-28.29882812 5.00373047 -27.33203125 4.69886719 -26.3359375 4.38476562 C-25.31757812 4.07216797 -24.29921875 3.75957031 -23.25 3.4375 C-22.24710938 3.12103516 -21.24421875 2.80457031 -20.2109375 2.47851562 C-12.97079567 0.21717159 -7.60940281 -1.34283579 0 0 Z " transform="translate(93,165)"/>
<path d="M0 0 C0.91136719 0.18175781 1.82273438 0.36351562 2.76171875 0.55078125 C14.12436609 2.75547402 25.5325731 4.43945314 37 6 C37 6.66 37 7.32 37 8 C25.82377681 8.62475782 15.00433945 6.7443641 4 5 C4 4.34 4 3.68 4 3 C2.68 2.67 1.36 2.34 0 2 C0 1.34 0 0.68 0 0 Z " transform="translate(226,470)"/>
<path d="M0 0 C2.84223197 1.36239218 4.96027641 2.55233169 7 5 C7 5.66 7 6.32 7 7 C6.32453125 7.01417969 5.6490625 7.02835937 4.953125 7.04296875 C-0.86471223 7.19235829 -0.86471223 7.19235829 -5.375 10.5 C-5.91125 11.325 -6.4475 12.15 -7 13 C-9.25 13.8125 -9.25 13.8125 -11 14 C-11 14.66 -11 15.32 -11 16 C-12.65 16.33 -14.3 16.66 -16 17 C-11.01595832 10.96668638 -5.58084697 5.4815829 0 0 Z " transform="translate(356,427)"/>
<path d="M0 0 C1.98 0.66 3.96 1.32 6 2 C6 2.66 6 3.32 6 4 C7.0209375 4.38671875 7.0209375 4.38671875 8.0625 4.78125 C12.0930365 6.45349387 15.94508143 8.45058646 19.828125 10.43359375 C23.16632111 12.12446265 26.50004365 13.67425896 30 15 C30 15.33 30 15.66 30 16 C21.67404102 15.7177641 15.37484982 12.72731977 8 9 C8 8.34 8 7.68 8 7 C7.05125 6.773125 6.1025 6.54625 5.125 6.3125 C2 5 2 5 0.625 2.375 C0.41875 1.59125 0.2125 0.8075 0 0 Z " transform="translate(195,454)"/>
<path d="M0 0 C7.92064267 3.23866278 12.70198966 12.81304324 17.06640625 19.7734375 C18 22 18 22 17.77734375 24.1015625 C17 26 17 26 15 29 C14.01 28.67 13.02 28.34 12 28 C12 23.71 12 19.42 12 15 C11.01 14.67 10.02 14.34 9 14 C5.19877891 9.85231345 2.30397289 5.11993976 0 0 Z " transform="translate(202,193)"/>
<path d="M0 0 C10.46920821 1.8090176 10.46920821 1.8090176 15.125 3.0625 C19.41413533 4.10019403 23.61259506 4.61407086 28 5 C28 5.66 28 6.32 28 7 C29.98 7 31.96 7 34 7 C34 7.66 34 8.32 34 9 C29.4865186 9.23755165 25.52307254 8.57942716 21.14453125 7.64453125 C17.06791096 6.80895069 12.97404594 6.09111119 8.875 5.375 C8.10373779 5.23989014 7.33247559 5.10478027 6.5378418 4.96557617 C4.69206229 4.64275679 2.84605516 4.3212393 1 4 C0.67 2.68 0.34 1.36 0 0 Z " transform="translate(419,366)"/>
<path d="M0 0 C0.99 0.66 1.98 1.32 3 2 C7.54531422 2.21993456 11.56590901 2.10852275 16 1 C16 1.66 16 2.32 16 3 C14.02 3.33 12.04 3.66 10 4 C10 4.66 10 5.32 10 6 C8.25531628 6.70088156 6.50398839 7.38524009 4.75 8.0625 C3.77546875 8.44535156 2.8009375 8.82820312 1.796875 9.22265625 C-1.04007395 10.01113787 -2.29409552 10.02437812 -5 9 C-4.34 8.01 -3.68 7.02 -3 6 C-2.835 5.319375 -2.67 4.63875 -2.5 3.9375 C-2 2 -2 2 0 0 Z " transform="translate(41,173)"/>
<path d="M0 0 C3.84519231 2.48076923 3.84519231 2.48076923 4.62890625 5.109375 C4.75136719 5.73328125 4.87382812 6.3571875 5 7 C4.07767578 7.07347656 4.07767578 7.07347656 3.13671875 7.1484375 C2.32847656 7.22320312 1.52023438 7.29796875 0.6875 7.375 C-0.11300781 7.44460938 -0.91351563 7.51421875 -1.73828125 7.5859375 C-4.27224441 7.89564426 -4.27224441 7.89564426 -7 10 C-7.433125 10.928125 -7.433125 10.928125 -7.875 11.875 C-9.41501905 14.78392487 -11.28597007 16.16960772 -14 18 C-16.8125 18.75 -16.8125 18.75 -19 19 C-15.67141426 14.73524953 -12.11891891 11.2520533 -8.00390625 7.74609375 C-5.19168361 5.29567753 -2.60406488 2.6691665 0 0 Z " transform="translate(165,348)"/>
<path d="M0 0 C9.23809589 1.36936377 18.64707372 4.02356939 26 10 C20.7142452 10.33348611 16.56196375 9.15160632 11.625 7.5 C10.52091797 7.14228516 10.52091797 7.14228516 9.39453125 6.77734375 C7.59380422 6.19269212 5.7965309 5.5974212 4 5 C4 4.34 4 3.68 4 3 C2.68 3 1.36 3 0 3 C0 2.01 0 1.02 0 0 Z " transform="translate(150,162)"/>
<path d="M0 0 C0.33 0.99 0.66 1.98 1 3 C0.34 3 -0.32 3 -1 3 C-1.0928125 3.8353125 -1.0928125 3.8353125 -1.1875 4.6875 C-2.35165517 8.00086472 -4.39458444 9.70475296 -7 12 C-7.99 12.33 -8.98 12.66 -10 13 C-10 13.99 -10 14.98 -10 16 C-11.62102968 17.71108689 -13.29503463 19.37253306 -15 21 C-17.45148884 23.87174407 -19.46425212 26.54456727 -21 30 C-21.66 30 -22.32 30 -23 30 C-18.80842839 18.26781213 -8.70554033 8.60750496 0 0 Z " transform="translate(360,85)"/>
<path d="M0 0 C2.83681999 0.89583789 5.61611044 1.83236823 8.34375 3.0234375 C13.89217876 5.4380315 17.94905301 6.4482183 24 6 C24 6.66 24 7.32 24 8 C26.97 8.99 29.94 9.98 33 11 C23.38220856 13.40444786 12.7666182 8.89120296 4.29296875 4.5 C2 3 2 3 0 0 Z " transform="translate(400,381)"/>
<path d="M0 0 C0.93423645 3.01031744 1.04449911 3.86650268 0 7 C-0.78375 7.45375 -1.5675 7.9075 -2.375 8.375 C-5.14842319 9.81454335 -5.14842319 9.81454335 -6.5 12.5 C-8.30653577 15.51089295 -9.95876721 16.30256774 -13 18 C-15.05783279 19.60646852 -17.02014837 21.29640674 -19 23 C-19 22.34 -19 21.68 -19 21 C-19.66 20.67 -20.32 20.34 -21 20 C-17.25 17 -17.25 17 -15 17 C-14.67 16.01 -14.34 15.02 -14 14 C-13.34 14 -12.68 14 -12 14 C-12 13.34 -12 12.68 -12 12 C-10.35 11.34 -8.7 10.68 -7 10 C-7 9.34 -7 8.68 -7 8 C-6.030625 7.195625 -5.06125 6.39125 -4.0625 5.5625 C-0.80624673 3.29315623 -0.80624673 3.29315623 0 0 Z " transform="translate(344,332)"/>
<path d="M0 0 C9.8731971 2.77683668 17.85596865 9.97862574 24 18 C21.5625 17.625 21.5625 17.625 19 17 C18.67 16.34 18.34 15.68 18 15 C17.1028125 14.566875 17.1028125 14.566875 16.1875 14.125 C13.60116216 12.7948834 12.05094241 11.05094241 10 9 C9.0925 8.46375 8.185 7.9275 7.25 7.375 C6.5075 6.92125 5.765 6.4675 5 6 C5 5.34 5 4.68 5 4 C4.360625 3.896875 3.72125 3.79375 3.0625 3.6875 C2.381875 3.460625 1.70125 3.23375 1 3 C0.67 2.01 0.34 1.02 0 0 Z " transform="translate(177,173)"/>
<path d="M0 0 C-0.33 0.66 -0.66 1.32 -1 2 C-3.64860427 2.59355614 -6.29197322 2.74209269 -9 3 C-9 3.66 -9 4.32 -9 5 C-13.36893737 5.84062776 -17.4835198 6.11732956 -21.9296875 6.09765625 C-23.21875 6.09443359 -24.5078125 6.09121094 -25.8359375 6.08789062 C-27.18229236 6.07953733 -28.52864652 6.07107241 -29.875 6.0625 C-31.24479004 6.0574783 -32.61458185 6.05291657 -33.984375 6.04882812 C-37.3229619 6.03707254 -40.66145815 6.02063964 -44 6 C-44 5.67 -44 5.34 -44 5 C-43.42258057 4.9906543 -42.84516113 4.98130859 -42.25024414 4.97167969 C-30.57931573 4.73588 -19.70907896 3.93992671 -8.43359375 0.83984375 C-5.43850708 0.10725714 -3.05619342 -0.18184644 0 0 Z " transform="translate(295,393)"/>
<path d="M0 0 C-0.33 0.99 -0.66 1.98 -1 3 C-1.99 3 -2.98 3 -4 3 C-4 2.34 -4 1.68 -4 1 C-14.89 1 -25.78 1 -37 1 C-29.66608523 -6.33391477 -9.28542925 -1.62495012 0 0 Z " transform="translate(149,161)"/>
<path d="M0 0 C2.9296875 0.43945312 2.9296875 0.43945312 5.859375 0.87890625 C7.97511491 1.11369109 7.97511491 1.11369109 9.84960938 0.48632812 C12.2640198 -0.0597102 14.09266964 0.05794178 16.546875 0.33984375 C17.39121094 0.43330078 18.23554688 0.52675781 19.10546875 0.62304688 C20.41451172 0.77870117 20.41451172 0.77870117 21.75 0.9375 C23.08224609 1.08735352 23.08224609 1.08735352 24.44140625 1.24023438 C26.62840871 1.48715401 28.81444667 1.74061635 31 2 C31 2.66 31 3.32 31 4 C20.42300905 4.23049133 10.44907631 3.85466965 0 2 C0 1.34 0 0.68 0 0 Z " transform="translate(423,391)"/>
<path d="M0 0 C1.60488281 0.00483398 1.60488281 0.00483398 3.2421875 0.00976562 C4.35335938 0.01814453 5.46453125 0.02652344 6.609375 0.03515625 C8.29933594 0.04192383 8.29933594 0.04192383 10.0234375 0.04882812 C12.80213717 0.06060228 15.58072909 0.07704785 18.359375 0.09765625 C18.359375 0.42765625 18.359375 0.75765625 18.359375 1.09765625 C12.749375 1.09765625 7.139375 1.09765625 1.359375 1.09765625 C1.359375 1.75765625 1.359375 2.41765625 1.359375 3.09765625 C-8.05064778 5.20927356 -8.05064778 5.20927356 -12.640625 6.09765625 C-12.640625 4.09765625 -12.640625 4.09765625 -11.390625 2.53515625 C-7.99922298 -0.25063826 -4.24372761 -0.02257302 0 0 Z " transform="translate(351.640625,215.90234375)"/>
<path d="M0 0 C1.84765625 2.0546875 1.84765625 2.0546875 3 4 C2.01 4.495 2.01 4.495 1 5 C0.67 4.34 0.34 3.68 0 3 C-7.26 3 -14.52 3 -22 3 C-22 2.34 -22 1.68 -22 1 C-14.77257316 -0.93477577 -7.34342387 -1.94483372 0 0 Z " transform="translate(453,450)"/>
<path d="M0 0 C2.58539171 1.40609023 3.46462071 3.40132289 4.78125 5.96875 C1.48125 5.96875 -1.81875 5.96875 -5.21875 5.96875 C-5.21875 6.62875 -5.21875 7.28875 -5.21875 7.96875 C-7.59375 9.65625 -7.59375 9.65625 -10.21875 10.96875 C-10.87875 10.63875 -11.53875 10.30875 -12.21875 9.96875 C-10.6511982 8.2665802 -9.06415216 6.58234446 -7.46875 4.90625 C-6.58703125 3.96652344 -5.7053125 3.02679688 -4.796875 2.05859375 C-2.21875 -0.03125 -2.21875 -0.03125 0 0 Z " transform="translate(166.21875,427.03125)"/>
<path d="M0 0 C13.86 0.495 13.86 0.495 28 1 C28 1.66 28 2.32 28 3 C23.89584811 3.02898097 19.79172247 3.0467922 15.6875 3.0625 C14.52025391 3.07087891 13.35300781 3.07925781 12.15039062 3.08789062 C10.47299805 3.09272461 10.47299805 3.09272461 8.76171875 3.09765625 C7.2142395 3.10551147 7.2142395 3.10551147 5.63549805 3.11352539 C3 3 3 3 0 2 C0 1.34 0 0.68 0 0 Z " transform="translate(244,452)"/>
<path d="M0 0 C0 0.66 0 1.32 0 2 C-8.10488018 8.75406682 -23.07545383 6.09729947 -33 6 C-33 5.67 -33 5.34 -33 5 C-31.87722656 4.96261719 -30.75445312 4.92523438 -29.59765625 4.88671875 C-21.54086193 4.55570387 -14.55050159 4.07139048 -7 1 C-4.47071412 0.26491118 -2.67385275 0 0 0 Z " transform="translate(287,372)"/>
<path d="M0 0 C0.33 1.32 0.66 2.64 1 4 C-1.29038024 5.14519012 -2.53068537 5.07351912 -5.0625 5 C-6.361875 5 -7.66125 5 -9 5 C-9.33 5.33 -9.66 5.66 -10 6 C-11.51928038 6.07179964 -13.04167482 6.08392007 -14.5625 6.0625 C-15.38878906 6.05347656 -16.21507812 6.04445312 -17.06640625 6.03515625 C-17.70449219 6.02355469 -18.34257812 6.01195312 -19 6 C-19 5.34 -19 4.68 -19 4 C-16.36 4 -13.72 4 -11 4 C-11 3.34 -11 2.68 -11 2 C-5.555 1.01 -5.555 1.01 0 0 Z " transform="translate(182,236)"/>
<path d="M0 0 C12.43933579 -0.68788954 23.87446251 1.36500385 36 4 C36 4.33 36 4.66 36 5 C28.65115663 5.22382264 22.10280723 4.97947087 15 3 C14.67 2.67 14.34 2.34 14 2 C11.65012738 1.76472227 9.29443961 1.58613583 6.9375 1.4375 C5.64714844 1.35371094 4.35679687 1.26992188 3.02734375 1.18359375 C1.52880859 1.09271484 1.52880859 1.09271484 0 1 C0 0.67 0 0.34 0 0 Z " transform="translate(422,25)"/>
<path d="M0 0 C0.33 1.32 0.66 2.64 1 4 C-1.26807204 5.0067004 -3.53907754 6.00551766 -5.8125 7 C-6.77639648 7.42925781 -6.77639648 7.42925781 -7.75976562 7.8671875 C-10.67756469 9.13711041 -12.78265714 10 -16 10 C-16 9.34 -16 8.68 -16 8 C-15.071875 7.566875 -14.14375 7.13375 -13.1875 6.6875 C-10.09424524 5.27680554 -10.09424524 5.27680554 -8.5625 3.4375 C-6.10384804 1.1755402 -3.18359206 0.78088107 0 0 Z " transform="translate(134,452)"/>
<path d="M0 0 C0 3 0 3 -1.375 4.875 C-5.17537614 7.95149497 -9.37643766 10.37730745 -14 12 C-16.3125 11.63671875 -16.3125 11.63671875 -18 11 C-17.43152344 10.62488281 -16.86304688 10.24976563 -16.27734375 9.86328125 C-12.48536131 7.35006417 -8.72627004 4.82258596 -5.0625 2.125 C-2 0 -2 0 0 0 Z " transform="translate(333,450)"/>
<path d="M0 0 C-0.0390625 1.796875 -0.0390625 1.796875 -1 4 C-3.48647917 5.29368129 -5.76311227 6.29845726 -8.375 7.25 C-9.06078125 7.518125 -9.7465625 7.78625 -10.453125 8.0625 C-13.43036641 9.1977905 -15.78971192 10 -19 10 C-19 9.34 -19 8.68 -19 8 C-16.21128823 6.66042079 -13.41856938 5.32941565 -10.625 4 C-9.8309375 3.6184375 -9.036875 3.236875 -8.21875 2.84375 C-7.45820313 2.4828125 -6.69765625 2.121875 -5.9140625 1.75 C-5.2123291 1.41484375 -4.5105957 1.0796875 -3.78759766 0.734375 C-2 0 -2 0 0 0 Z " transform="translate(314,462)"/>
<path d="M0 0 C2.9375 2.5 2.9375 2.5 5 5 C4.67 5.66 4.34 6.32 4 7 C3.29875 6.360625 2.5975 5.72125 1.875 5.0625 C-1.22841233 2.83613898 -3.24620139 2.34919057 -7 2 C-7.2475 2.598125 -7.495 3.19625 -7.75 3.8125 C-9.19482573 6.34094503 -10.48280545 7.55070617 -13 9 C-13.99 8.67 -14.98 8.34 -16 8 C-15.34 8 -14.68 8 -14 8 C-14 7.34 -14 6.68 -14 6 C-10.00847864 1.31693847 -6.32714055 -1.28886196 0 0 Z " transform="translate(169,324)"/>
<path d="M0 0 C0 0.66 0 1.32 0 2 C-2.06172613 2.33808686 -4.1244203 2.67027361 -6.1875 3 C-7.33605469 3.185625 -8.48460937 3.37125 -9.66796875 3.5625 C-12.50415393 3.93489477 -15.14719564 4.08596021 -18 4 C-18 4.66 -18 5.32 -18 6 C-20.64 6.33 -23.28 6.66 -26 7 C-25.67 6.01 -25.34 5.02 -25 4 C-23.23754883 3.29223633 -23.23754883 3.29223633 -20.95703125 2.83203125 C-19.71663086 2.57583008 -19.71663086 2.57583008 -18.45117188 2.31445312 C-17.58041016 2.14880859 -16.70964844 1.98316406 -15.8125 1.8125 C-14.96107422 1.63525391 -14.10964844 1.45800781 -13.23242188 1.27539062 C-8.75782172 0.37908634 -4.58732965 -0.21772923 0 0 Z " transform="translate(463,40)"/>
<path d="M0 0 C0.33 0.99 0.66 1.98 1 3 C-0.134375 3.12375 -1.26875 3.2475 -2.4375 3.375 C-4.2009375 3.684375 -4.2009375 3.684375 -6 4 C-6.33 4.66 -6.66 5.32 -7 6 C-10.16015625 6.4140625 -10.16015625 6.4140625 -14.0625 6.625 C-15.35285156 6.69976562 -16.64320312 6.77453125 -17.97265625 6.8515625 C-18.97167969 6.90054687 -19.97070312 6.94953125 -21 7 C-20.67 6.34 -20.34 5.68 -20 5 C-17.35139573 4.40644386 -14.70802678 4.25790731 -12 4 C-12 3.34 -12 2.68 -12 2 C-8.04 1.34 -4.08 0.68 0 0 Z " transform="translate(88,369)"/>
<path d="M0 0 C0.33 0.99 0.66 1.98 1 3 C-1.31 3.66 -3.62 4.32 -6 5 C-6.66 8.96 -7.32 12.92 -8 17 C-10.01696222 13.97455666 -10.25811096 13.38932618 -10.1875 10 C-10.18105469 9.319375 -10.17460937 8.63875 -10.16796875 7.9375 C-10 6 -10 6 -9 3 C-8.34 3 -7.68 3 -7 3 C-7 2.34 -7 1.68 -7 1 C-3.535 0.505 -3.535 0.505 0 0 Z " transform="translate(159,240)"/>
<path d="M0 0 C0 3 0 3 -2.375 5.5625 C-3.674375 6.7690625 -3.674375 6.7690625 -5 8 C-7.22799559 9.83173488 -7.22799559 9.83173488 -7.375 12.5 C-8 15 -8 15 -10.0625 16.3125 C-10.701875 16.539375 -11.34125 16.76625 -12 17 C-12.33 16.01 -12.66 15.02 -13 14 C-12.67 13.34 -12.34 12.68 -12 12 C-11.34 12 -10.68 12 -10 12 C-9.5359375 11.071875 -9.5359375 11.071875 -9.0625 10.125 C-8.375 8.75 -7.6875 7.375 -7 6 C-6.34 6 -5.68 6 -5 6 C-4.67 5.01 -4.34 4.02 -4 3 C-1.9375 1.3125 -1.9375 1.3125 0 0 Z " transform="translate(46,166)"/>
<path d="M0 0 C-2.17186421 2.17186421 -3.49976531 2.6793248 -6.375 3.625 C-7.14585937 3.88539062 -7.91671875 4.14578125 -8.7109375 4.4140625 C-11 5 -11 5 -15 5 C-15.33 5.99 -15.66 6.98 -16 8 C-16.99 7.67 -17.98 7.34 -19 7 C-18.34 7 -17.68 7 -17 7 C-17.33 6.01 -17.66 5.02 -18 4 C-11.72912263 0.28392452 -7.24539726 -0.53449652 0 0 Z " transform="translate(421,52)"/>
<path d="M0 0 C3.82990706 0.64743667 6.5283898 2.45311237 9.75 4.5625 C11.22726563 5.52349609 11.22726563 5.52349609 12.734375 6.50390625 C13.85585937 7.24447266 13.85585937 7.24447266 15 8 C14.34 8.66 13.68 9.32 13 10 C7.76944019 8.01238727 4.06833472 5.86987937 0 2 C0 1.34 0 0.68 0 0 Z " transform="translate(193,375)"/>
<path d="M0 0 C0.33 0.66 0.66 1.32 1 2 C0.37915039 3.78759766 0.37915039 3.78759766 -0.65234375 5.9140625 C-1.01650391 6.67460938 -1.38066406 7.43515625 -1.75585938 8.21875 C-2.14580078 9.0128125 -2.53574219 9.806875 -2.9375 10.625 C-3.32357422 11.42679688 -3.70964844 12.22859375 -4.10742188 13.0546875 C-5.06461573 15.03997846 -6.02903475 17.02141737 -7 19 C-7.66 19 -8.32 19 -9 19 C-9.33 20.32 -9.66 21.64 -10 23 C-10.66 22.67 -11.32 22.34 -12 22 C-9.69 17.38 -7.38 12.76 -5 8 C-4.34 8 -3.68 8 -3 8 C-3.061875 7.236875 -3.12375 6.47375 -3.1875 5.6875 C-3 3 -3 3 -1.5 1.1875 C-1.005 0.795625 -0.51 0.40375 0 0 Z " transform="translate(278,107)"/>
<path d="M0 0 C0 0.99 0 1.98 0 3 C-5.61 2.67 -11.22 2.34 -17 2 C-17 2.66 -17 3.32 -17 4 C-17.66 3.67 -18.32 3.34 -19 3 C-18 1 -18 1 -15.375 -0.125 C-10.07736777 -1.49846021 -5.29437403 -1.28348461 0 0 Z " transform="translate(85,450)"/>
<path d="M0 0 C1.32 0.66 2.64 1.32 4 2 C2.92807816 3.3218362 1.84197305 4.63217927 0.75 5.9375 C0.14671875 6.66839844 -0.4565625 7.39929688 -1.078125 8.15234375 C-3.10741134 10.10326334 -4.254407 10.61731779 -7 11 C-6.42676569 7.13066838 -4.61046448 4.84777943 -2 2 C-1.34 2 -0.68 2 0 2 C0 1.34 0 0.68 0 0 Z " transform="translate(342,412)"/>
<path d="M0 0 C0.33 0.66 0.66 1.32 1 2 C0.34 2 -0.32 2 -1 2 C-1 2.66 -1 3.32 -1 4 C-4.06533164 5.53266582 -7.26754272 5.10276471 -10.625 5.0625 C-11.33140625 5.05798828 -12.0378125 5.05347656 -12.765625 5.04882812 C-14.51045275 5.03703875 -16.255237 5.01910324 -18 5 C-14.52934193 2.68622795 -11.32959845 2.11015527 -7.3125 1.375 C-6.61060547 1.2409375 -5.90871094 1.106875 -5.18554688 0.96875 C-3.45818294 0.6397283 -1.72923409 0.31904688 0 0 Z " transform="translate(99,389)"/>
<path d="M0 0 C0.66 0.33 1.32 0.66 2 1 C1.29875 1.515625 0.5975 2.03125 -0.125 2.5625 C-2.49887939 4.57513688 -4.11011614 6.33623642 -6 8.75 C-8.62828529 11.94343472 -8.62828529 11.94343472 -11.875 12.4375 C-12.57625 12.293125 -13.2775 12.14875 -14 12 C-4.57142857 2.28571429 -4.57142857 2.28571429 0 0 Z " transform="translate(62,152)"/>
<path d="M0 0 C3.58653984 1.67371859 6.27487915 3.16133245 9 6 C10.051875 6.680625 11.10375 7.36125 12.1875 8.0625 C13.115625 8.701875 14.04375 9.34125 15 10 C15 10.66 15 11.32 15 12 C16.32 12.33 17.64 12.66 19 13 C18.67 13.66 18.34 14.32 18 15 C16.02 14.01 14.04 13.02 12 12 C12 11.34 12 10.68 12 10 C11.113125 9.773125 10.22625 9.54625 9.3125 9.3125 C5.51769499 7.80889801 3.63349146 6.08494714 1 3 C0.67 2.01 0.34 1.02 0 0 Z " transform="translate(377,342)"/>
<path d="M0 0 C-0.33 0.66 -0.66 1.32 -1 2 C-3.33247815 2.62852934 -5.69291467 3.15535246 -8.0625 3.625 C-9.35285156 3.88539063 -10.64320312 4.14578125 -11.97265625 4.4140625 C-12.97167969 4.60742188 -13.97070312 4.80078125 -15 5 C-15.33 3.68 -15.66 2.36 -16 1 C-10.26696495 -0.57300962 -5.84340558 -1.24327778 0 0 Z " transform="translate(93,165)"/>
<path d="M0 0 C3.78496138 1.51398455 4.0072198 2.0144396 6 6 C2.37 6.33 -1.26 6.66 -5 7 C-3.38262276 3.76524552 -2.52370777 2.29427979 0 0 Z " transform="translate(356,427)"/>
<path d="M0 0 C4.62 0.66 9.24 1.32 14 2 C14 2.66 14 3.32 14 4 C15.98 4 17.96 4 20 4 C20 4.66 20 5.32 20 6 C14.45291384 6.2919519 9.38027025 5.19088986 4 4 C4 3.34 4 2.68 4 2 C2.68 2 1.36 2 0 2 C0 1.34 0 0.68 0 0 Z " transform="translate(433,369)"/>
<path d="M0 0 C0.66 0.66 1.32 1.32 2 2 C0.2365625 2.061875 0.2365625 2.061875 -1.5625 2.125 C-6.67389492 2.71722936 -9.50123478 5.42469929 -13 9 C-12.66916395 6.02247554 -12.12584648 4.18625279 -10.4375 1.6875 C-6.79657408 -0.83314102 -4.37778246 -0.42365637 0 0 Z " transform="translate(360,325)"/>
<path d="M0 0 C3.28437688 3.28437688 4.54903824 7.64711473 6 12 C6.99 12.33 7.98 12.66 9 13 C9 13.66 9 14.32 9 15 C9.99 15.33 10.98 15.66 12 16 C11.01 16.66 10.02 17.32 9 18 C8.67 17.01 8.34 16.02 8 15 C7.01 14.67 6.02 14.34 5 14 C5 13.34 5 12.68 5 12 C4.34 12 3.68 12 3 12 C0.58314288 7.77050005 -0.34833144 4.87664009 0 0 Z " transform="translate(152,257)"/>
<path d="M0 0 C1.65 0 3.3 0 5 0 C5 0.66 5 1.32 5 2 C5.65226563 2.12117188 6.30453125 2.24234375 6.9765625 2.3671875 C20.65886483 4.9906378 20.65886483 4.9906378 24 9 C24.66 9.66 25.32 10.32 26 11 C22.44219804 10.39009109 19.3171411 9.4216319 16 8 C16 7.34 16 6.68 16 6 C10.06 4.515 10.06 4.515 4 3 C4 2.34 4 1.68 4 1 C2.68 0.67 1.36 0.34 0 0 Z " transform="translate(190,113)"/>
<path d="M0 0 C0.99 0.33 1.98 0.66 3 1 C2.34 1 1.68 1 1 1 C1 1.66 1 2.32 1 3 C-0.32064453 3.38091797 -0.32064453 3.38091797 -1.66796875 3.76953125 C-2.82941406 4.11371094 -3.99085938 4.45789062 -5.1875 4.8125 C-6.91033203 5.31716797 -6.91033203 5.31716797 -8.66796875 5.83203125 C-11.78209579 6.92361857 -14.24853006 8.20302229 -17 10 C-19.125 11.25 -19.125 11.25 -21 12 C-21.99 11.67 -22.98 11.34 -24 11 C-18.25 8 -18.25 8 -16 8 C-16 7.34 -16 6.68 -16 6 C-13.89748139 5.32815382 -11.79292237 4.66269032 -9.6875 4 C-8.51574219 3.62875 -7.34398437 3.2575 -6.13671875 2.875 C-3 2 -3 2 0 2 C0 1.34 0 0.68 0 0 Z " transform="translate(366,31)"/>
<path d="M0 0 C1.65 0 3.3 0 5 0 C0.88135045 3.72007056 -5.20736961 8 -11 8 C-11 7.01 -11 6.02 -11 5 C-4.5 2 -4.5 2 0 2 C0 1.34 0 0.68 0 0 Z " transform="translate(303,364)"/>
<path d="M0 0 C3.78496138 1.51398455 4.0072198 2.0144396 6 6 C2.7 6 -0.6 6 -4 6 C-2 2 -2 2 0 0 Z " transform="translate(356,349)"/>
<path d="M0 0 C0.33 0.99 0.66 1.98 1 3 C0.34 3 -0.32 3 -1 3 C-1.061875 3.556875 -1.12375 4.11375 -1.1875 4.6875 C-2.35165517 8.00086472 -4.39458444 9.70475296 -7 12 C-7.99 12.33 -8.98 12.66 -10 13 C-10.33 13.99 -10.66 14.98 -11 16 C-11.34375 13.86328125 -11.34375 13.86328125 -11 11 C-9.21336981 8.8508231 -7.53604497 7.06096153 -5.5 5.1875 C-4.97535156 4.68541016 -4.45070313 4.18332031 -3.91015625 3.66601562 C-2.61777468 2.43237867 -1.31030401 1.21458375 0 0 Z " transform="translate(360,85)"/>
<path d="M0 0 C1.65 0 3.3 0 5 0 C5.33 0.66 5.66 1.32 6 2 C1.72886302 4.18326108 -2.50202887 6.31326082 -7 8 C-7.66 7.34 -8.32 6.68 -9 6 C-8.67 5.34 -8.34 4.68 -8 4 C-5.35139573 3.40644386 -2.70802678 3.25790731 0 3 C0 2.01 0 1.02 0 0 Z " transform="translate(292,253)"/>
<path d="M0 0 C0 0.99 0 1.98 0 3 C-2.625 5.04296875 -2.625 5.04296875 -6 7.1875 C-6.57234375 7.55552734 -7.1446875 7.92355469 -7.734375 8.30273438 C-9.15024462 9.21125071 -10.57437797 10.10686477 -12 11 C-12.66 10.67 -13.32 10.34 -14 10 C-13.67 9.34 -13.34 8.68 -13 8 C-12.01 8 -11.02 8 -10 8 C-10 7.34 -10 6.68 -10 6 C-8.3203125 4.4921875 -8.3203125 4.4921875 -6.125 2.875 C-5.40570313 2.33617187 -4.68640625 1.79734375 -3.9453125 1.2421875 C-2 0 -2 0 0 0 Z " transform="translate(324,430)"/>
<path d="M0 0 C0.99 0.33 1.98 0.66 3 1 C2.34 1 1.68 1 1 1 C0.67 1.99 0.34 2.98 0 4 C-2.3984375 5.16796875 -2.3984375 5.16796875 -5.375 6.1875 C-6.84066406 6.70376953 -6.84066406 6.70376953 -8.3359375 7.23046875 C-11 8 -11 8 -14 8 C-14 7.34 -14 6.68 -14 6 C-13.15695312 5.65066406 -12.31390625 5.30132812 -11.4453125 4.94140625 C-10.34960938 4.48636719 -9.25390625 4.03132813 -8.125 3.5625 C-7.03445313 3.11003906 -5.94390625 2.65757812 -4.8203125 2.19140625 C-3.19441376 1.50456537 -1.57868226 0.78934113 0 0 Z " transform="translate(311,385)"/>
<path d="M0 0 C-0.59765625 1.88671875 -0.59765625 1.88671875 -2 4 C-4.93359375 5.08203125 -4.93359375 5.08203125 -8.4375 5.8125 C-9.59121094 6.06644531 -10.74492188 6.32039063 -11.93359375 6.58203125 C-15 7 -15 7 -18 6 C-13.05 4.515 -13.05 4.515 -8 3 C-8 2.34 -8 1.68 -8 1 C-5.23735711 0.40267181 -2.83967231 0 0 0 Z " transform="translate(124,118)"/>
<path d="M0 0 C0.33 0.66 0.66 1.32 1 2 C0.01 2.66 -0.98 3.32 -2 4 C-3.01866229 5.65532623 -4.01810813 7.32260138 -5 9 C-7.28150672 11.80003098 -9.61426893 12.81041881 -13 14 C-11.87952194 10.63856582 -10.50292817 9.42471166 -8 7 C-7.67 6.34 -7.34 5.68 -7 5 C-6.01 5 -5.02 5 -4 5 C-3.71125 4.360625 -3.4225 3.72125 -3.125 3.0625 C-2 1 -2 1 0 0 Z " transform="translate(313,63)"/>
<path d="M0 0 C0 0.66 0 1.32 0 2 C-0.66 2 -1.32 2 -2 2 C-2 2.66 -2 3.32 -2 4 C-3.24420647 4.5345256 -4.49570936 5.05208611 -5.75 5.5625 C-6.44609375 5.85253906 -7.1421875 6.14257812 -7.859375 6.44140625 C-10.30012784 7.07831803 -11.6403655 6.80248831 -14 6 C-12.2335343 4.9923048 -10.46166177 3.99408286 -8.6875 3 C-7.20830078 2.1646875 -7.20830078 2.1646875 -5.69921875 1.3125 C-3 0 -3 0 0 0 Z " transform="translate(404,57)"/>
<path d="M0 0 C3.11547441 0.67883043 5.85137721 1.74106902 8.75 3.0625 C9.54921875 3.42472656 10.3484375 3.78695313 11.171875 4.16015625 C11.77515625 4.43730469 12.3784375 4.71445312 13 5 C13 5.99 13 6.98 13 8 C7.13965614 7.71412957 3.92483606 5.08740323 0 1 C0 0.67 0 0.34 0 0 Z " transform="translate(206,359)"/>
<path d="M0 0 C4.21775732 1.35525536 8.29421322 2.90200114 12.375 4.625 C13.96441406 5.29402344 13.96441406 5.29402344 15.5859375 5.9765625 C16.38257813 6.31429688 17.17921875 6.65203125 18 7 C13.95248594 8.34917135 10.87758316 7.46470751 7 6 C4.43879879 4.50275643 2.31658578 2.88222595 0 1 C0 0.67 0 0.34 0 0 Z " transform="translate(400,381)"/>
<path d="M0 0 C2.475 0.495 2.475 0.495 5 1 C5 1.66 5 2.32 5 3 C6.11375 3.1546875 6.11375 3.1546875 7.25 3.3125 C10.17014018 4.04253504 11.73187554 5.06789398 14 7 C13.67 7.66 13.34 8.32 13 9 C11.7315625 8.3503125 11.7315625 8.3503125 10.4375 7.6875 C6.99632807 5.99819742 3.53318732 4.48393867 0 3 C0 2.01 0 1.02 0 0 Z " transform="translate(383,372)"/>
<path d="M0 0 C0.33 1.32 0.66 2.64 1 4 C-0.78614318 5.03046722 -2.57910018 6.04913236 -4.375 7.0625 C-5.87160156 7.91521484 -5.87160156 7.91521484 -7.3984375 8.78515625 C-8.25695312 9.18605469 -9.11546875 9.58695312 -10 10 C-10.66 9.67 -11.32 9.34 -12 9 C-10.56351736 7.87370125 -9.12577415 6.7490101 -7.6875 5.625 C-6.88699219 4.99851562 -6.08648437 4.37203125 -5.26171875 3.7265625 C-3.55336788 2.42243282 -1.78827274 1.19218183 0 0 Z " transform="translate(148,442)"/>
<path d="M0 0 C-0.33 0.66 -0.66 1.32 -1 2 C-3.64860427 2.59355614 -6.29197322 2.74209269 -9 3 C-9 3.66 -9 4.32 -9 5 C-12.3 4.67 -15.6 4.34 -19 4 C-19 3.67 -19 3.34 -19 3 C-16.77228658 2.49356447 -14.54275924 1.9951038 -12.3125 1.5 C-10.45044922 1.08234375 -10.45044922 1.08234375 -8.55078125 0.65625 C-5.57601782 0.10645874 -3.00631398 -0.13795705 0 0 Z " transform="translate(295,393)"/>
<path d="M0 0 C3.49403583 0.72376457 6.51998905 2.06285206 9.75 3.5625 C11.22726563 4.24505859 11.22726563 4.24505859 12.734375 4.94140625 C13.48203125 5.29074219 14.2296875 5.64007813 15 6 C15 6.33 15 6.66 15 7 C9.66510093 6.54009491 5.62476672 5.93277889 1 3 C0.67 2.01 0.34 1.02 0 0 Z " transform="translate(209,385)"/>
<path d="M0 0 C-0.66 0 -1.32 0 -2 0 C-2 0.66 -2 1.32 -2 2 C-3.41396902 2.50757862 -4.83131729 3.00574925 -6.25 3.5 C-7.43335937 3.91765625 -7.43335937 3.91765625 -8.640625 4.34375 C-11 5 -11 5 -15 5 C-15 4.34 -15 3.68 -15 3 C-13.25531628 2.29911844 -11.50398839 1.61475991 -9.75 0.9375 C-8.77546875 0.55464844 -7.8009375 0.17179687 -6.796875 -0.22265625 C-3.95992605 -1.01113787 -2.70590448 -1.02437812 0 0 Z " transform="translate(117,385)"/>
<path d="M0 0 C1.41750563 0.11509661 2.83401169 0.24253658 4.25 0.375 C5.03890625 0.44460938 5.8278125 0.51421875 6.640625 0.5859375 C9.085877 1.01507113 10.84836903 1.78600638 13 3 C13 3.66 13 4.32 13 5 C8.428721 4.45144652 4.32564205 3.58255197 0 2 C0 1.34 0 0.68 0 0 Z " transform="translate(229,370)"/>
<path d="M0 0 C0.33 0.99 0.66 1.98 1 3 C-0.24420647 3.5345256 -1.49570936 4.05208611 -2.75 4.5625 C-3.44609375 4.85253906 -4.1421875 5.14257812 -4.859375 5.44140625 C-7.30012784 6.07831803 -8.6403655 5.80248831 -11 5 C-11 4.34 -11 3.68 -11 3 C-7.37 2.01 -3.74 1.02 0 0 Z " transform="translate(100,366)"/>
<path d="M0 0 C0 0.66 0 1.32 0 2 C-2.64 2 -5.28 2 -8 2 C-8 2.66 -8 3.32 -8 4 C-9.65 4.33 -11.3 4.66 -13 5 C-10.04964557 -1.80851023 -6.4752192 -1.06151134 0 0 Z " transform="translate(227,263)"/>
<path d="M0 0 C1.21236328 0.01353516 1.21236328 0.01353516 2.44921875 0.02734375 C3.37154297 0.04474609 3.37154297 0.04474609 4.3125 0.0625 C3.9825 0.7225 3.6525 1.3825 3.3125 2.0625 C1.3325 2.0625 -0.6475 2.0625 -2.6875 2.0625 C-3.3475 3.3825 -4.0075 4.7025 -4.6875 6.0625 C-5.6775 5.7325 -6.6675 5.4025 -7.6875 5.0625 C-7.6875 3.7425 -7.6875 2.4225 -7.6875 1.0625 C-4.80538698 0.10179566 -2.98899956 -0.04331883 0 0 Z " transform="translate(190.6875,234.9375)"/>
<path d="M0 0 C1.58367747 0.14204741 3.16693318 0.28880153 4.75 0.4375 C5.63171875 0.51871094 6.5134375 0.59992188 7.421875 0.68359375 C9.69350452 0.96238465 11.79851823 1.38790577 14 2 C14 2.99 14 3.98 14 5 C12.41439607 4.74279326 10.83154076 4.46861201 9.25 4.1875 C8.36828125 4.03667969 7.4865625 3.88585937 6.578125 3.73046875 C3.8089089 2.94585752 2.1740599 1.85404641 0 0 Z " transform="translate(228,448)"/>
<path d="M0 0 C4.34863652 0.56444825 7.17827655 2.15427964 10.8125 4.5625 C12.27623047 5.52349609 12.27623047 5.52349609 13.76953125 6.50390625 C14.50558594 6.99761719 15.24164063 7.49132812 16 8 C14.21875 8.6484375 14.21875 8.6484375 12 9 C10.21875 8.0390625 10.21875 8.0390625 8.5 6.625 C6.53107415 5.02301033 5.34205107 4.07559824 2.84375 3.5234375 C2.2353125 3.35070312 1.626875 3.17796875 1 3 C0.67 2.01 0.34 1.02 0 0 Z " transform="translate(216,124)"/>
<path d="M0 0 C0.33 0.99 0.66 1.98 1 3 C-0.6396875 3.61875 -0.6396875 3.61875 -2.3125 4.25 C-5.60602189 5.64265154 -6.9256561 7.07706087 -9 10 C-11.6875 11.25 -11.6875 11.25 -14 12 C-13.67 11.01 -13.34 10.02 -13 9 C-12.01 8.67 -11.02 8.34 -10 8 C-9.67 7.01 -9.34 6.02 -9 5 C-6.93359375 3.61328125 -6.93359375 3.61328125 -4.4375 2.3125 C-3.61121094 1.87550781 -2.78492188 1.43851563 -1.93359375 0.98828125 C-1.29550781 0.66214844 -0.65742188 0.33601563 0 0 Z " transform="translate(328,51)"/>
<path d="M0 0 C3.8063457 0.67170806 7.35206816 1.72746564 11 3 C9 5 9 5 7.0546875 5.1953125 C5.03645833 5.13020833 3.01822917 5.06510417 1 5 C0.67 3.35 0.34 1.7 0 0 Z " transform="translate(401,437)"/>
<path d="M0 0 C2.31 0.66 4.62 1.32 7 2 C6.75 3.875 6.75 3.875 6 6 C3.9375 7.25 3.9375 7.25 2 8 C2 7.34 2 6.68 2 6 C1.34 5.67 0.68 5.34 0 5 C0 3.35 0 1.7 0 0 Z " transform="translate(469,33)"/>
<path d="M0 0 C7.875 0.875 7.875 0.875 9 2 C9.04063832 3.66617115 9.042721 5.33388095 9 7 C2.25 3.375 2.25 3.375 0 0 Z " transform="translate(185,448)"/>
<path d="M0 0 C-0.33 0.66 -0.66 1.32 -1 2 C-2.66666667 2.33333333 -4.33333333 2.66666667 -6 3 C-7.03125 3.515625 -8.0625 4.03125 -9.125 4.5625 C-12 6 -12 6 -15 6 C-13.71034824 4.62437146 -12.37310707 3.29233607 -11 2 C-10.34 2 -9.68 2 -9 2 C-9 1.34 -9 0.68 -9 0 C-5.93109813 -1.53445094 -3.29905734 -0.54984289 0 0 Z " transform="translate(361,403)"/>
<path d="M0 0 C0.99 0.33 1.98 0.66 3 1 C1.61122646 4.35620271 0.08322035 6.07298728 -3 8 C-3.66 8 -4.32 8 -5 8 C-4.45773019 4.20411134 -2.79872437 2.52788007 0 0 Z " transform="translate(142,342)"/>
<path d="M0 0 C10.55808656 1.92710706 10.55808656 1.92710706 15 4 C11.46905698 5.20220203 8.87101018 4.79532349 5.25 4.0625 C4.26515625 3.86785156 3.2803125 3.67320312 2.265625 3.47265625 C1.51796875 3.31667969 0.7703125 3.16070312 0 3 C0 2.01 0 1.02 0 0 Z " transform="translate(150,162)"/>
<path d="M0 0 C3.43301724 0.77907956 6.75410038 1.62425447 10 3 C11.625 5.6875 11.625 5.6875 12 8 C10.35 7.67 8.7 7.34 7 7 C7 6.34 7 5.68 7 5 C5.5459375 4.5978125 5.5459375 4.5978125 4.0625 4.1875 C3.051875 3.795625 2.04125 3.40375 1 3 C0.67 2.01 0.34 1.02 0 0 Z " transform="translate(382,449)"/>
<path d="M0 0 C2.99220268 1.36370299 5.29026529 2.94908083 7.75 5.125 C8.67039063 5.93324219 8.67039063 5.93324219 9.609375 6.7578125 C10.06828125 7.16773438 10.5271875 7.57765625 11 8 C9.1875 8.625 9.1875 8.625 7 9 C6.01 8.34 5.02 7.68 4 7 C4 6.01 4 5.02 4 4 C3.34 4 2.68 4 2 4 C1.34 2.68 0.68 1.36 0 0 Z " transform="translate(176,439)"/>
<path d="M0 0 C0 0.99 0 1.98 0 3 C-0.66 3 -1.32 3 -2 3 C-2 3.66 -2 4.32 -2 5 C-3.26607607 5.53229326 -4.53810412 6.05044544 -5.8125 6.5625 C-6.52019531 6.85253906 -7.22789063 7.14257812 -7.95703125 7.44140625 C-10 8 -10 8 -13 7 C-10.69047195 4.33286761 -8.73666732 3.37145513 -5.375 2.375 C-2.42560369 1.63985856 -2.42560369 1.63985856 0 0 Z " transform="translate(122,435)"/>
<path d="M0 0 C-1.05078125 1.45703125 -1.05078125 1.45703125 -3 3 C-6.35546875 3.51171875 -6.35546875 3.51171875 -10.1875 3.6875 C-12.09595703 3.78611328 -12.09595703 3.78611328 -14.04296875 3.88671875 C-15.01878906 3.92410156 -15.99460937 3.96148437 -17 4 C-12.64760099 -0.35239901 -5.82763193 -0.242818 0 0 Z " transform="translate(141,114)"/>
<path d="M0 0 C0 0.99 0 1.98 0 3 C-3.3 3.66 -6.6 4.32 -10 5 C-9.67 3.68 -9.34 2.36 -9 1 C-2.25 0 -2.25 0 0 0 Z " transform="translate(115,462)"/>
<path d="M0 0 C1.4589426 0.47730838 2.91713496 0.95691042 4.375 1.4375 C5.18710937 1.70433594 5.99921875 1.97117187 6.8359375 2.24609375 C9 3 9 3 11 4 C11 4.66 11 5.32 11 6 C8.36 5.67 5.72 5.34 3 5 C3 4.34 3 3.68 3 3 C2.01 2.67 1.02 2.34 0 2 C0 1.34 0 0.68 0 0 Z " transform="translate(397,458)"/>
<path d="M0 0 C0 0.66 0 1.32 0 2 C0.99 2.33 1.98 2.66 3 3 C-1.95 5.475 -1.95 5.475 -7 8 C-6.03418472 4.13673888 -4.59855385 0 0 0 Z " transform="translate(390,62)"/>
<path d="M0 0 C0 0.66 0 1.32 0 2 C-0.99 2 -1.98 2 -3 2 C-3 2.66 -3 3.32 -3 4 C-6.63 4 -10.26 4 -14 4 C-11.36505677 2.24337118 -9.96001018 1.58136607 -7 0.875 C-6.319375 0.70742188 -5.63875 0.53984375 -4.9375 0.3671875 C-3 0 -3 0 0 0 Z " transform="translate(294,471)"/>
<path d="M0 0 C2.97722547 0.70333538 5.85256543 1.58248537 8.75 2.5625 C9.94882813 2.96662109 9.94882813 2.96662109 11.171875 3.37890625 C11.77515625 3.58386719 12.3784375 3.78882813 13 4 C11.68 4.99 10.36 5.98 9 7 C9 6.34 9 5.68 9 5 C8.2575 5.103125 7.515 5.20625 6.75 5.3125 C4 5 4 5 1.6875 2.5 C1.130625 1.675 0.57375 0.85 0 0 Z " transform="translate(217,443)"/>
<path d="M0 0 C3.7910119 1.44950455 7.3874638 3.15172566 11 5 C11 5.66 11 6.32 11 7 C7.65626525 6.44271087 4.96687001 5.64826111 2 4 C2 3.34 2 2.68 2 2 C1.34 2 0.68 2 0 2 C0 1.34 0 0.68 0 0 Z " transform="translate(206,436)"/>
<path d="M0 0 C0.33 0.66 0.66 1.32 1 2 C0.0925 2.598125 -0.815 3.19625 -1.75 3.8125 C-4.22901481 5.48106766 -6.63317911 7.17936855 -9 9 C-8.67043582 5.95153135 -8.4305501 4.41570354 -6.1875 2.25 C-4.08753207 1.05001832 -2.36928283 0.42308622 0 0 Z " transform="translate(158,436)"/>
<path d="M0 0 C0 0.33 0 0.66 0 1 C-3.3 1 -6.6 1 -10 1 C-10 1.66 -10 2.32 -10 3 C-12.375 4.6875 -12.375 4.6875 -15 6 C-15.66 5.67 -16.32 5.34 -17 5 C-11.8688876 -1.79525696 -8.10144389 -1.58569187 0 0 Z " transform="translate(171,432)"/>
<path d="M0 0 C4.01763224 4.38287154 4.01763224 4.38287154 3.9375 7.1875 C3 9 3 9 0 11 C0 7.37 0 3.74 0 0 Z " transform="translate(216,210)"/>
<path d="M0 0 C1.60597325 0.45196245 3.20972508 0.91182327 4.8125 1.375 C6.15248047 1.75785156 6.15248047 1.75785156 7.51953125 2.1484375 C10 3 10 3 13 5 C8.5214021 5.17563129 4.97415868 5.22085338 1 3 C0.67 2.01 0.34 1.02 0 0 Z " transform="translate(409,463)"/>
<path d="M0 0 C-1.65 1.65 -3.3 3.3 -5 5 C-7.31 4.34 -9.62 3.68 -12 3 C-12 2.67 -12 2.34 -12 2 C-10.56656 1.46809459 -9.12804633 0.94984742 -7.6875 0.4375 C-6.48673828 0.00244141 -6.48673828 0.00244141 -5.26171875 -0.44140625 C-3 -1 -3 -1 0 0 Z " transform="translate(303,445)"/>
<path d="M0 0 C3.63 0.66 7.26 1.32 11 2 C11 2.66 11 3.32 11 4 C7.37 3.67 3.74 3.34 0 3 C0 2.01 0 1.02 0 0 Z " transform="translate(237,395)"/>
<path d="M0 0 C-6.14285714 5.57142857 -6.14285714 5.57142857 -11 6 C-4.94863014 -1.48458904 -4.94863014 -1.48458904 0 0 Z " transform="translate(157,361)"/>
<path d="M0 0 C-1.1487362 3.44620861 -2.07581642 4.09169196 -4.9375 6.1875 C-5.64777344 6.71730469 -6.35804688 7.24710937 -7.08984375 7.79296875 C-9 9 -9 9 -11 9 C-10.67 8.01 -10.34 7.02 -10 6 C-9.34 6 -8.68 6 -8 6 C-8 5.34 -8 4.68 -8 4 C-7.01 4 -6.02 4 -5 4 C-5 3.34 -5 2.68 -5 2 C-2 0 -2 0 0 0 Z " transform="translate(216,263)"/>
<path d="M0 0 C1.17949219 0.10183594 2.35898437 0.20367187 3.57421875 0.30859375 C4.47785156 0.39238281 5.38148438 0.47617188 6.3125 0.5625 C6.3125 0.8925 6.3125 1.2225 6.3125 1.5625 C-3.0925 2.0575 -3.0925 2.0575 -12.6875 2.5625 C-8.09997547 -0.49584969 -5.37703014 -0.4791413 0 0 Z " transform="translate(360.6875,213.4375)"/>
<path d="M0 0 C0.33 0 0.66 0 1 0 C1 3.96 1 7.92 1 12 C0.01 12 -0.98 12 -2 12 C-1.85904936 10.3745692 -1.71207913 8.74965949 -1.5625 7.125 C-1.48128906 6.22007812 -1.40007812 5.31515625 -1.31640625 4.3828125 C-1 2 -1 2 0 0 Z " transform="translate(314,167)"/>
<path d="M0 0 C9.17286652 -0.63019694 9.17286652 -0.63019694 12.625 2 C13.07875 2.66 13.5325 3.32 14 4 C10.77018017 4 8.96174371 3.18469748 6 2 C5.01 2 4.02 2 3 2 C2.01 1.34 1.02 0.68 0 0 Z " transform="translate(172,172)"/>
<path d="M0 0 C0.66 0.33 1.32 0.66 2 1 C1.24172908 2.17487036 0.46792245 3.33972592 -0.3125 4.5 C-0.74175781 5.1496875 -1.17101562 5.799375 -1.61328125 6.46875 C-2.07089844 6.9740625 -2.52851563 7.479375 -3 8 C-3.99 8 -4.98 8 -6 8 C-7.68798827 9.43750191 -7.68798827 9.43750191 -9 11 C-8.34 9.35 -7.68 7.7 -7 6 C-6.01 6 -5.02 6 -4 6 C-3.67 5.01 -3.34 4.02 -3 3 C-1.4375 1.3125 -1.4375 1.3125 0 0 Z " transform="translate(148,415)"/>
<path d="M0 0 C1.32 0.66 2.64 1.32 4 2 C2.92892883 2.86949317 1.84254056 3.72014205 0.75 4.5625 C0.14671875 5.03816406 -0.4565625 5.51382812 -1.078125 6.00390625 C-3 7 -3 7 -7 6 C-4.69 4.02 -2.38 2.04 0 0 Z " transform="translate(213,266)"/>
<path d="M0 0 C0.66 0.33 1.32 0.66 2 1 C1.01 1.33 0.02 1.66 -1 2 C-1.268125 2.598125 -1.53625 3.19625 -1.8125 3.8125 C-3.54493139 7.00382098 -5.86616633 8.27319369 -9 10 C-9.99 9.67 -10.98 9.34 -12 9 C-6.25 5 -6.25 5 -4 5 C-3.71125 4.360625 -3.4225 3.72125 -3.125 3.0625 C-2 1 -2 1 0 0 Z " transform="translate(74,142)"/>
<path d="M0 0 C-4.22949995 2.41685712 -7.12335991 3.34833144 -12 3 C-12.33 2.34 -12.66 1.68 -13 1 C-11.39796533 0.63631108 -9.79325797 0.28438048 -8.1875 -0.0625 C-7.29417969 -0.25972656 -6.40085937 -0.45695312 -5.48046875 -0.66015625 C-3 -1 -3 -1 0 0 Z " transform="translate(98,447)"/>
<path d="M0 0 C3.78383679 0.92493788 5.56693694 1.39371171 7.875 4.625 C8.431875 5.800625 8.431875 5.800625 9 7 C5.13066838 6.42676569 2.84777943 4.61046448 0 2 C0 1.34 0 0.68 0 0 Z " transform="translate(196,429)"/>
<path d="M0 0 C0.33 0.66 0.66 1.32 1 2 C-0.010625 1.87625 -1.02125 1.7525 -2.0625 1.625 C-7.26594839 2.12056651 -9.44744474 4.37185846 -13 8 C-13 5 -13 5 -10.4375 2.3125 C-7.04200396 -0.39417226 -4.31274054 -0.43127405 0 0 Z " transform="translate(169,402)"/>
<path d="M0 0 C0 0.66 0 1.32 0 2 C-3.41831915 4.5393228 -5.75776898 5.3636198 -10 5 C-10 4.34 -10 3.68 -10 3 C-3.375 0 -3.375 0 0 0 Z " transform="translate(287,372)"/>
<path d="M0 0 C-0.24609375 1.859375 -0.24609375 1.859375 -1 4 C-2.84765625 5.265625 -2.84765625 5.265625 -5.0625 6.25 C-6.16271484 6.75273437 -6.16271484 6.75273437 -7.28515625 7.265625 C-8.13400391 7.62914062 -8.13400391 7.62914062 -9 8 C-7.25975373 4.16501285 -4.63701127 0 0 0 Z " transform="translate(336,222)"/>
<path d="M0 0 C0.66 0 1.32 0 2 0 C1.60304363 1.62992692 1.18167507 3.25392235 0.75 4.875 C0.51796875 5.77992188 0.2859375 6.68484375 0.046875 7.6171875 C-1 10 -1 10 -5 12 C-3.35 8.04 -1.7 4.08 0 0 Z " transform="translate(325,135)"/>
<path d="M0 0 C-0.99 0.33 -1.98 0.66 -3 1 C-3 1.66 -3 2.32 -3 3 C-5.97 3.66 -8.94 4.32 -12 5 C-12.33 4.01 -12.66 3.02 -13 2 C-4.57142857 -0.28571429 -4.57142857 -0.28571429 0 0 Z " transform="translate(440,45)"/>
<path d="M0 0 C0 0.66 0 1.32 0 2 C-4.40914783 3.10228696 -8.48382401 3.07654536 -13 3 C-9.39091002 -0.60908998 -4.88215348 -0.11353845 0 0 Z " transform="translate(463,40)"/>
<path d="M0 0 C-0.33 1.32 -0.66 2.64 -1 4 C-3.31 4.33 -5.62 4.66 -8 5 C-8 4.34 -8 3.68 -8 3 C-2.25 0 -2.25 0 0 0 Z " transform="translate(314,462)"/>
<path d="M0 0 C1.31571603 0.2547514 2.62760376 0.52934141 3.9375 0.8125 C4.66839844 0.96332031 5.39929688 1.11414063 6.15234375 1.26953125 C6.76207031 1.51058594 7.37179688 1.75164062 8 2 C8.33 2.99 8.66 3.98 9 5 C5.625 4.75 5.625 4.75 2 4 C0.5625 1.9375 0.5625 1.9375 0 0 Z " transform="translate(227,392)"/>
<path d="M0 0 C1.75 2.5 1.75 2.5 3 5 C-3.625 4.25 -3.625 4.25 -7 2 C-4 0 -4 0 0 0 Z " transform="translate(226,390)"/>
<path d="M0 0 C0 0.99 0 1.98 0 3 C-2.88834003 5.10770759 -4.38462395 6 -8 6 C-8 5.01 -8 4.02 -8 3 C-5.36 2.01 -2.72 1.02 0 0 Z " transform="translate(116,360)"/>
<path d="M0 0 C1.32 0.66 2.64 1.32 4 2 C1.36 4.64 -1.28 7.28 -4 10 C-4.33 9.01 -4.66 8.02 -5 7 C-4.34 7 -3.68 7 -3 7 C-2.67 6.01 -2.34 5.02 -2 4 C-1.34 4 -0.68 4 0 4 C0 2.68 0 1.36 0 0 Z " transform="translate(342,358)"/>
<path d="M0 0 C-2.85276137 2.93200474 -5.65079784 5.64315404 -9 8 C-8.64005447 5.3364031 -8.28838998 3.41816548 -6.75 1.1875 C-4.41988723 -0.39364795 -2.75498245 -0.22337696 0 0 Z " transform="translate(358,348)"/>
<path d="M0 0 C0.66 0 1.32 0 2 0 C2.6875 1.8125 2.6875 1.8125 3 4 C1.5625 5.75 1.5625 5.75 0 7 C-0.99 6.67 -1.98 6.34 -3 6 C-2.67 4.68 -2.34 3.36 -2 2 C-1.34 2 -0.68 2 0 2 C0 1.34 0 0.68 0 0 Z " transform="translate(36,176)"/>
<path d="M0 0 C0 3 0 3 -2.5 5.6875 C-3.325 6.450625 -4.15 7.21375 -5 8 C-5.99 7.67 -6.98 7.34 -8 7 C-5.36 4.69 -2.72 2.38 0 0 Z " transform="translate(370,76)"/>
<path d="M0 0 C-0.33 0.99 -0.66 1.98 -1 3 C-4.91390601 4.47694566 -7.99434629 5.60226148 -12 4 C-11.01 4 -10.02 4 -9 4 C-9 3.34 -9 2.68 -9 2 C-2.25 0 -2.25 0 0 0 Z " transform="translate(104,466)"/>
<path d="M0 0 C4.16138263 -0.08159574 7.9472484 0.01751476 12 1 C11.67 1.66 11.34 2.32 11 3 C9.35333797 2.8864371 7.70763918 2.75882619 6.0625 2.625 C5.14597656 2.55539062 4.22945313 2.48578125 3.28515625 2.4140625 C2.15400391 2.20910156 2.15400391 2.20910156 1 2 C0.67 1.34 0.34 0.68 0 0 Z " transform="translate(424,447)"/>
<path d="M0 0 C2.475 0.495 2.475 0.495 5 1 C5 1.99 5 2.98 5 4 C5.99 4 6.98 4 8 4 C8 4.99 8 5.98 8 7 C8.66 7.33 9.32 7.66 10 8 C7 8 7 8 4.8125 6.125 C3 4 3 4 3 2 C2.01 1.67 1.02 1.34 0 1 C0 0.67 0 0.34 0 0 Z " transform="translate(165,426)"/>
<path d="M0 0 C0.99 0.33 1.98 0.66 3 1 C-1.27152492 4.95897432 -4.31251115 6.74875245 -10 8 C-6.97731777 4.74480375 -3.85903564 2.21689281 0 0 Z " transform="translate(339,43)"/>
<path d="M0 0 C1.65 0 3.3 0 5 0 C5 0.99 5 1.98 5 3 C2.36 3.33 -0.28 3.66 -3 4 C-3 3.34 -3 2.68 -3 2 C-2.01 2 -1.02 2 0 2 C0 1.34 0 0.68 0 0 Z " transform="translate(275,451)"/>
<path d="M0 0 C0.99 0.99 1.98 1.98 3 3 C-0.63 3 -4.26 3 -8 3 C-8 2.34 -8 1.68 -8 1 C-5.20129973 -0.39935013 -3.09501208 -0.25265405 0 0 Z " transform="translate(84,392)"/>
<path d="M0 0 C2.64 0.66 5.28 1.32 8 2 C8 2.66 8 3.32 8 4 C5.69 4 3.38 4 1 4 C0.67 2.68 0.34 1.36 0 0 Z " transform="translate(220,366)"/>
<path d="M0 0 C1.98 0 3.96 0 6 0 C6.33 0.99 6.66 1.98 7 3 C4.03 3 1.06 3 -2 3 C-1.34 2.67 -0.68 2.34 0 2 C0 1.34 0 0.68 0 0 Z " transform="translate(73,468)"/>
<path d="M0 0 C0.99 0.66 1.98 1.32 3 2 C3 2.33 3 2.66 3 3 C3.66 3.33 4.32 3.66 5 4 C0.375 6.125 0.375 6.125 -3 5 C-3 4.34 -3 3.68 -3 3 C-2.34 3 -1.68 3 -1 3 C-0.67 2.01 -0.34 1.02 0 0 Z " transform="translate(135,448)"/>
<path d="M0 0 C3.79588866 0.54226981 5.47211993 2.20127563 8 5 C3.48279689 5.36625971 3.48279689 5.36625971 1.1875 3.625 C0 2 0 2 0 0 Z " transform="translate(193,375)"/>
<path d="M0 0 C0.33 0.66 0.66 1.32 1 2 C-5.75 6 -5.75 6 -8 6 C-8 5.01 -8 4.02 -8 3 C-5.36095629 1.58622659 -2.92879371 0.62759865 0 0 Z " transform="translate(333,373)"/>
<path d="M0 0 C0.556875 0.226875 1.11375 0.45375 1.6875 0.6875 C1.089375 0.955625 0.49125 1.22375 -0.125 1.5 C-2.35577908 2.5768979 -2.35577908 2.5768979 -3.9375 4.3125 C-4.39125 4.76625 -4.845 5.22 -5.3125 5.6875 C-5.9725 5.6875 -6.6325 5.6875 -7.3125 5.6875 C-7.3125 4.6975 -7.3125 3.7075 -7.3125 2.6875 C-3.28618421 -0.44407895 -3.28618421 -0.44407895 0 0 Z " transform="translate(143.3125,369.3125)"/>
<path d="M0 0 C1.65 0 3.3 0 5 0 C4.375 1.9375 4.375 1.9375 3 4 C-0.125 4.75 -0.125 4.75 -3 5 C-2.67 4.01 -2.34 3.02 -2 2 C-1.34 2 -0.68 2 0 2 C0 1.34 0 0.68 0 0 Z " transform="translate(312,359)"/>
<path d="M0 0 C0.66 0 1.32 0 2 0 C1.375 2.375 1.375 2.375 0 5 C-3.125 6.3125 -3.125 6.3125 -6 7 C-5.25 5.0625 -5.25 5.0625 -4 3 C-1.875 2.25 -1.875 2.25 0 2 C0 1.34 0 0.68 0 0 Z " transform="translate(320,232)"/>
<path d="M0 0 C2.1875 -0.375 2.1875 -0.375 5 0 C6.99022836 1.83961648 8.38989899 3.79186148 10 6 C7.5625 5.625 7.5625 5.625 5 5 C4.67 4.34 4.34 3.68 4 3 C1.98330173 1.86649466 1.98330173 1.86649466 0 1 C0 0.67 0 0.34 0 0 Z " transform="translate(191,185)"/>
<path d="M0 0 C3.3 0.33 6.6 0.66 10 1 C9.67 1.99 9.34 2.98 9 4 C8.01 4 7.02 4 6 4 C6 3.34 6 2.68 6 2 C4.02 2 2.04 2 0 2 C0 1.34 0 0.68 0 0 Z " transform="translate(139,160)"/>
<path d="M0 0 C1.5778125 0.680625 1.5778125 0.680625 3.1875 1.375 C6.10825453 2.62760001 9.04294668 3.83510021 12 5 C8.44757118 6.18414294 7.30169438 5.69535532 3.8125 4.5625 C2.91144531 4.27503906 2.01039063 3.98757813 1.08203125 3.69140625 C0.39496094 3.46324219 -0.29210937 3.23507812 -1 3 C-0.67 2.01 -0.34 1.02 0 0 Z " transform="translate(412,441)"/>
<path d="M0 0 C1.32 0.66 2.64 1.32 4 2 C2.35 3.32 0.7 4.64 -1 6 C-1.33 4.68 -1.66 3.36 -2 2 C-1.34 2 -0.68 2 0 2 C0 1.34 0 0.68 0 0 Z " transform="translate(342,412)"/>
<path d="M0 0 C0.66 0.33 1.32 0.66 2 1 C1 4 1 4 -1.9375 5.75 C-3.4534375 6.36875 -3.4534375 6.36875 -5 7 C-5.66 6.67 -6.32 6.34 -7 6 C-4.69 4.02 -2.38 2.04 0 0 Z " transform="translate(336,368)"/>
<path d="M0 0 C-0.57344937 2.86724686 -0.8614515 3.8614515 -3 6 C-3.99 5.67 -4.98 5.34 -6 5 C-4.87312259 1.61936778 -3.78825335 0 0 0 Z " transform="translate(137,348)"/>
<path d="M0 0 C0.66 0.33 1.32 0.66 2 1 C0.68 3.31 -0.64 5.62 -2 8 C-1.34 8.33 -0.68 8.66 0 9 C-1.32 9.33 -2.64 9.66 -4 10 C-2.99806563 6.20696275 -2.18975773 3.28463659 0 0 Z " transform="translate(339,107)"/>
<path d="M0 0 C1.98 0.66 3.96 1.32 6 2 C5.67 3.32 5.34 4.64 5 6 C3.0625 5.25 3.0625 5.25 1 4 C0.25 1.875 0.25 1.875 0 0 Z " transform="translate(195,454)"/>
<path d="M0 0 C0 0.99 0 1.98 0 3 C-4.22222222 6 -4.22222222 6 -7 6 C-5.81636731 2.44910192 -3.99368042 0 0 0 Z " transform="translate(333,450)"/>
<path d="M0 0 C0.33 0.66 0.66 1.32 1 2 C0.0625 4.125 0.0625 4.125 -1 6 C-2.65 6 -4.3 6 -6 6 C-4 4 -2 2 0 0 Z " transform="translate(310,438)"/>
<path d="M0 0 C1.875 0.125 1.875 0.125 4 1 C5.25 4.0625 5.25 4.0625 6 7 C5.34 7.66 4.68 8.32 4 9 C3.34 8.34 2.68 7.68 2 7 C2.66 7 3.32 7 4 7 C3.01 5.824375 3.01 5.824375 2 4.625 C0 2 0 2 0 0 Z " transform="translate(369,436)"/>
<path d="M0 0 C0.99 0.33 1.98 0.66 3 1 C0.51047079 3.66735273 -1.63408134 5.55746343 -5 7 C-3.70700306 4.11562221 -2.34058637 2.12780579 0 0 Z " transform="translate(356,427)"/>
<path d="M0 0 C0.93423645 3.01031744 1.04449911 3.86650268 0 7 C-1.875 8.25 -1.875 8.25 -4 9 C-4.99 8.67 -5.98 8.34 -7 8 C-5.47005208 6.79557292 -3.94010417 5.59114583 -2.41015625 4.38671875 C-0.72844923 2.94316909 -0.72844923 2.94316909 0 0 Z " transform="translate(344,332)"/>
<path d="M0 0 C2.31 0 4.62 0 7 0 C5.68 1.32 4.36 2.64 3 4 C1.68 3.34 0.36 2.68 -1 2 C-0.67 1.34 -0.34 0.68 0 0 Z " transform="translate(284,257)"/>
<path d="M0 0 C-0.33 0.99 -0.66 1.98 -1 3 C-3.31 3.33 -5.62 3.66 -8 4 C-5.52914451 0.29371676 -4.37054922 0 0 0 Z " transform="translate(44,179)"/>
<path d="M0 0 C3.40312738 1.05875074 6.01353231 2.00902154 9 4 C9 4.66 9 5.32 9 6 C2.42696629 4.1011236 2.42696629 4.1011236 0 1 C0 0.67 0 0.34 0 0 Z " transform="translate(177,173)"/>
<path d="M0 0 C1.11375 0.556875 1.11375 0.556875 2.25 1.125 C1.26 2.61 1.26 2.61 0.25 4.125 C-2.06 3.135 -4.37 2.145 -6.75 1.125 C-4.02098495 -0.69434337 -3.21400584 -1.02263822 0 0 Z " transform="translate(395.75,455.875)"/>
<path d="M0 0 C3.65316671 1.24976756 4.78065836 1.67098753 7 5 C4.03 4.505 4.03 4.505 1 4 C0.67 2.68 0.34 1.36 0 0 Z " transform="translate(374,443)"/>
<path d="M0 0 C1.9375 0.75 1.9375 0.75 4 2 C4.75 4.125 4.75 4.125 5 6 C0.125 4.25 0.125 4.25 -1 2 C-0.67 1.34 -0.34 0.68 0 0 Z " transform="translate(394,431)"/>
<path d="M0 0 C0.66 0.33 1.32 0.66 2 1 C1.360625 1.268125 0.72125 1.53625 0.0625 1.8125 C-2.33131686 2.88667752 -2.33131686 2.88667752 -3 6 C-3.99 5.67 -4.98 5.34 -6 5 C-6 4.34 -6 3.68 -6 3 C-4.03533587 1.93224776 -2.03144641 0.93446535 0 0 Z " transform="translate(318,381)"/>
<path d="M0 0 C1.65 0 3.3 0 5 0 C5 0.66 5 1.32 5 2 C2.36 2.66 -0.28 3.32 -3 4 C-3 3.34 -3 2.68 -3 2 C-2.01 2 -1.02 2 0 2 C0 1.34 0 0.68 0 0 Z " transform="translate(280,260)"/>
<path d="M0 0 C0.66 0.33 1.32 0.66 2 1 C1.01 2.485 1.01 2.485 0 4 C0.66 4.33 1.32 4.66 2 5 C0.02 5.99 0.02 5.99 -2 7 C-2.33 5.02 -2.66 3.04 -3 1 C-2.01 0.67 -1.02 0.34 0 0 Z " transform="translate(328,225)"/>
<path d="M0 0 C3.16115776 1.36983503 3.9927092 1.9890638 6 5 C5.67 5.99 5.34 6.98 5 8 C2.74754119 5.31158141 1.11786042 3.35358125 0 0 Z " transform="translate(202,193)"/>
<path d="M0 0 C0.66 0 1.32 0 2 0 C3.06775224 1.96466413 4.06553465 3.96855359 5 6 C4.67 6.66 4.34 7.32 4 8 C2 6.25 2 6.25 0 4 C0 2.68 0 1.36 0 0 Z " transform="translate(207,194)"/>
<path d="M0 0 C0 0.66 0 1.32 0 2 C-2.64 2.33 -5.28 2.66 -8 3 C-8 2.34 -8 1.68 -8 1 C-5.29120665 -0.35439668 -2.99066732 -0.06501451 0 0 Z " transform="translate(98,160)"/>
<path d="M0 0 C0.66 0.33 1.32 0.66 2 1 C-3.14285714 5.42857143 -3.14285714 5.42857143 -7 6 C-2.25 1.125 -2.25 1.125 0 0 Z " transform="translate(62,152)"/>
<path d="M0 0 C4.455 1.98 4.455 1.98 9 4 C5.71023192 5.09658936 4.28696233 4.79953138 1 4 C0.67 2.68 0.34 1.36 0 0 Z " transform="translate(211,463)"/>
<path d="M0 0 C0.33 1.32 0.66 2.64 1 4 C-1.31 4.33 -3.62 4.66 -6 5 C-6 4.34 -6 3.68 -6 3 C-4.02 2.01 -2.04 1.02 0 0 Z " transform="translate(134,452)"/>
<path d="M0 0 C2.64 0 5.28 0 8 0 C5.23776722 2.76223278 2.79293383 2.57856291 -1 3 C-0.67 2.01 -0.34 1.02 0 0 Z " transform="translate(287,448)"/>
<path d="M0 0 C3 1 3 1 5 5 C2.03 4.01 -0.94 3.02 -4 2 C-2.68 1.34 -1.36 0.68 0 0 Z " transform="translate(397,379)"/>
<path d="M0 0 C0.33 0.99 0.66 1.98 1 3 C0 4 0 4 -2.5625 4.0625 C-3.7690625 4.0315625 -3.7690625 4.0315625 -5 4 C-4.67 3.01 -4.34 2.02 -4 1 C-1.9375 0.3125 -1.9375 0.3125 0 0 Z " transform="translate(100,366)"/>
<path d="M0 0 C2.31 1.98 4.62 3.96 7 6 C6.01 6.495 6.01 6.495 5 7 C2.5 5.1875 2.5 5.1875 0 3 C0 2.01 0 1.02 0 0 Z " transform="translate(368,359)"/>
<path d="M0 0 C0.99 0 1.98 0 3 0 C1.63016497 3.16115776 1.0109362 3.9927092 -2 6 C-1.125 1.125 -1.125 1.125 0 0 Z " transform="translate(160,349)"/>
<path d="M0 0 C0 0.99 0 1.98 0 3 C-0.99 3 -1.98 3 -3 3 C-3.33 3.99 -3.66 4.98 -4 6 C-4.99 5.67 -5.98 5.34 -7 5 C-2.25 0 -2.25 0 0 0 Z " transform="translate(205,274)"/>
<path d="M0 0 C0.99 0 1.98 0 3 0 C3.33 0.99 3.66 1.98 4 3 C2.02 3.33 0.04 3.66 -2 4 C-1.34 2.68 -0.68 1.36 0 0 Z " transform="translate(270,262)"/>
<path d="M0 0 C2.31 0 4.62 0 7 0 C5.75 1.5 5.75 1.5 4 3 C2.68 3 1.36 3 0 3 C0 2.01 0 1.02 0 0 Z " transform="translate(397,55)"/>
</svg>
